<?xml version="1.0" standalone="no"?>
<!DOCTYPE svg PUBLIC "-//W3C//DTD SVG 1.1//EN" "http://www.w3.org/Graphics/SVG/1.1/DTD/svg11.dtd" >
<svg xmlns="http://www.w3.org/2000/svg" xmlns:xlink="http://www.w3.org/1999/xlink" version="1.1">
<metadata>
Created by FontForge 20170924 at Sun Sep 18 01:36:55 2005
 By www-data
Copyright (C) 1996 Emigre Graphics, Designed by Zuzana Licko
</metadata>
<defs>
<font id="MrsEavesRoman" horiz-adv-x="617" >
  <font-face 
    font-family="MrsEavesRoman"
    font-weight="400"
    font-stretch="normal"
    units-per-em="1000"
    panose-1="2 11 5 0 0 0 0 0 0 0"
    ascent="800"
    descent="-200"
    x-height="333"
    cap-height="600"
    bbox="-109 -270 1075 840"
    underline-thickness="25"
    underline-position="-86"
    stemh="21"
    stemv="71"
    unicode-range="U+0020-E000"
  />
<missing-glyph horiz-adv-x="502" 
d="M499 0h-500v500h500v-500zM9 490v-480h480v480h-480z" />
    <glyph glyph-name=".notdef" horiz-adv-x="502" 
d="M499 0h-500v500h500v-500zM9 490v-480h480v480h-480z" />
    <glyph glyph-name="space" unicode=" " horiz-adv-x="233" 
 />
    <glyph glyph-name="exclam" unicode="!" horiz-adv-x="313" 
d="M194 40c0 -27 -21 -48 -48 -48c-25 0 -47 23 -47 48c0 27 22 48 47 48c27 0 48 -21 48 -48zM99 568c0 27 22 49 47 49s48 -22 48 -49c0 -14 -2 -38 -7 -72c-5 -45 -10 -93 -15 -142c-4 -49 -7 -114 -9 -194h-34c-2 81 -5 146 -9 194s-9 95 -15 141c-4 35 -6 59 -6 73z
" />
    <glyph glyph-name="quotedbl" unicode="&#x22;" horiz-adv-x="412" 
d="M75 568c0 27 22 49 47 49s48 -22 48 -49c0 -6 -3 -18 -10 -36c-15 -41 -26 -79 -30 -139h-17c-4 61 -14 96 -29 139c-6 18 -9 30 -9 36zM242 568c0 27 21 49 46 49s49 -24 49 -49c0 -6 -3 -18 -10 -36c-15 -41 -26 -79 -30 -139h-17c-4 61 -14 96 -29 139
c-6 18 -9 30 -9 36z" />
    <glyph glyph-name="numbersign" unicode="#" horiz-adv-x="435" 
d="M320 425l-19 -111h78l-9 -52h-78l-20 -123h-40l21 123h-107l-20 -123h-40l21 123h-79l10 52h77l19 111h-77l9 53h77l21 122h40l-21 -122h106l21 122h40l-21 -122h79l-10 -53h-78zM174 425l-19 -111h106l19 111h-106z" />
    <glyph glyph-name="dollar" unicode="$" horiz-adv-x="498" 
d="M252 683v-101c79 -8 130 -49 130 -81c0 -12 -6 -20 -18 -24c-1 0 -2 0 -4 -1h-4c-7 0 -16 7 -29 20c-23 25 -40 41 -75 46v-197l71 -36c59 -31 93 -81 93 -130c0 -47 -16 -85 -48 -116c-31 -30 -70 -46 -116 -47v-99h-36v101c-46 4 -84 16 -115 37c-30 21 -45 41 -45 61
c0 9 4 15 11 20c5 3 9 5 14 5c7 0 17 -8 31 -24c29 -32 55 -54 104 -61v227l-48 25c-57 29 -100 79 -100 140c0 37 14 68 42 94c29 27 64 40 106 41v100h36zM252 264v-210c60 3 102 43 102 103c0 40 -38 76 -102 107zM216 364v179c-47 -4 -86 -36 -86 -76
c0 -41 23 -68 86 -103z" />
    <glyph glyph-name="percent" unicode="%" horiz-adv-x="763" 
d="M704 128c0 -79 -67 -144 -149 -144c-81 0 -149 65 -149 144c0 78 67 143 149 143s149 -65 149 -143zM555 618l36 -18l-383 -618l-36 18zM357 473c0 -77 -68 -143 -149 -143s-150 65 -150 143c0 79 69 144 150 144s149 -65 149 -144zM638 128c0 64 -28 110 -83 110
s-82 -46 -82 -110c0 -65 27 -110 82 -110s83 46 83 110zM290 473c0 64 -29 110 -82 110c-55 0 -83 -45 -83 -110c0 -64 28 -110 83 -110c53 0 82 46 82 110z" />
    <glyph glyph-name="ampersand" unicode="&#x26;" horiz-adv-x="657" 
d="M233 357c92 53 135 85 135 145c0 44 -34 76 -79 76c-59 0 -95 -45 -95 -89c0 -41 13 -85 39 -132zM385 75c-84 89 -142 153 -183 212c-43 -37 -67 -76 -67 -137c0 -34 13 -64 38 -90c25 -25 57 -38 95 -38c51 0 89 20 117 53zM409 50c-36 -45 -86 -67 -149 -67
c-97 0 -197 57 -197 175c0 73 42 120 114 165c-37 57 -55 107 -55 150c0 41 16 76 49 103c32 27 73 41 118 41c39 0 73 -11 101 -33c28 -21 42 -49 42 -82c0 -61 -39 -92 -122 -140c-26 -15 -45 -27 -58 -36c29 -43 84 -109 163 -196c7 20 12 40 14 60c1 13 2 24 2 32
c0 45 -21 58 -90 58v21h226v-21c-85 -3 -93 -17 -104 -90c-5 -35 -12 -64 -23 -87c43 -48 86 -80 121 -80c20 0 42 12 65 35l17 -17c-27 -36 -66 -58 -101 -58c-49 0 -89 24 -133 67z" />
    <glyph glyph-name="quoteright" unicode="&#x2019;" horiz-adv-x="268" 
d="M130 521c-1 -1 -4 -1 -8 -1c-25 0 -47 23 -47 48c0 27 22 49 47 49c29 0 54 -23 54 -64c0 -48 -33 -114 -92 -150l-11 11c36 37 50 67 57 107z" />
    <glyph glyph-name="parenleft" unicode="(" horiz-adv-x="358" 
d="M329 -89l1 -1l-22 -21c-139 113 -225 246 -225 406s85 291 224 406l23 -21l-1 -1c-44 -48 -76 -87 -113 -151c-36 -63 -63 -145 -63 -233s27 -170 63 -234c37 -63 69 -102 113 -150z" />
    <glyph glyph-name="parenright" unicode=")" horiz-adv-x="358" 
d="M275 295c0 -160 -85 -293 -224 -406l-23 21l2 2c43 48 76 86 112 150c37 64 64 145 64 233s-27 169 -64 233c-36 64 -69 102 -112 150l-2 2l24 21c139 -115 223 -246 223 -406z" />
    <glyph glyph-name="asterisk" unicode="*" horiz-adv-x="407" 
d="M194 414c-36 -23 -51 -44 -67 -71c-7 -13 -14 -21 -19 -24c-7 -5 -15 -7 -24 -7c-19 0 -33 8 -42 25c-5 7 -7 14 -7 22c0 19 8 33 25 42c5 3 16 5 31 6c32 1 55 4 94 23c-39 20 -64 23 -95 24c-15 1 -25 2 -30 5c-17 11 -25 25 -25 42c0 8 2 15 7 22c9 17 23 25 42 25
c9 0 17 -2 24 -7c5 -3 12 -11 19 -24c16 -28 31 -48 67 -71c-3 43 -11 65 -26 93c-7 13 -11 23 -11 29c0 27 21 49 46 49s49 -24 49 -49c0 -6 -4 -16 -11 -29c-15 -28 -25 -51 -28 -94c36 24 51 43 67 70c8 13 15 21 20 24c8 5 16 7 25 7c17 0 31 -8 40 -23
c4 -7 6 -14 6 -23c0 -19 -8 -33 -23 -42c-5 -3 -16 -5 -32 -6c-31 0 -57 -3 -94 -22c39 -19 64 -22 95 -22c15 -1 26 -2 31 -5c15 -10 23 -24 23 -43c0 -8 -2 -16 -6 -23c-9 -15 -23 -23 -40 -23c-9 0 -17 2 -25 7c-5 3 -12 11 -20 24c-16 27 -32 47 -68 70
c4 -43 13 -65 29 -93c7 -14 11 -24 11 -30c0 -25 -24 -49 -49 -49s-46 22 -46 49c0 7 4 16 11 29c15 28 23 52 26 93z" />
    <glyph glyph-name="plus" unicode="+" horiz-adv-x="458" 
d="M251 400v-157h157v-44h-157v-157h-44v157h-157v44h157v157h44z" />
    <glyph glyph-name="comma" unicode="," horiz-adv-x="313" 
d="M154 -2c-1 -1 -4 -1 -8 -1c-25 0 -47 22 -47 49s22 48 47 48c29 0 54 -22 54 -63c0 -48 -33 -115 -92 -151l-11 12c36 39 50 66 57 106z" />
    <glyph glyph-name="hyphen" unicode="-" horiz-adv-x="458" 
d="M375 227v-44h-292v44h292z" />
    <glyph glyph-name="period" unicode="." horiz-adv-x="313" 
d="M211 44c0 -28 -26 -52 -57 -52s-55 24 -55 52c0 29 24 53 55 53s57 -24 57 -53z" />
    <glyph glyph-name="slash" unicode="/" horiz-adv-x="348" 
d="M298 618l40 -14l-288 -622l-40 14z" />
    <glyph glyph-name="zero" unicode="0" horiz-adv-x="592" 
d="M296 450c127 0 233 -106 233 -233c0 -128 -106 -234 -233 -234s-233 106 -233 234c0 127 106 233 233 233zM296 393c-92 0 -169 -79 -169 -176s77 -176 169 -176c91 0 169 79 169 176c0 95 -78 176 -169 176z" />
    <glyph glyph-name="one" unicode="1" horiz-adv-x="363" 
d="M313 21v-21h-263v21c84 0 96 16 96 117v158c0 101 -12 117 -96 117v20h263v-20c-85 0 -96 -15 -96 -117v-158c0 -102 11 -117 96 -117z" />
    <glyph glyph-name="two" unicode="2" horiz-adv-x="520" 
d="M338 176l-154 -118h259l-25 -137h-21c0 67 -16 79 -117 79h-206v24l177 139c71 56 96 108 96 152c0 57 -43 93 -108 93c-27 0 -51 -9 -72 -27s-31 -40 -31 -67c0 -18 6 -37 17 -56l-30 -31c-41 25 -62 60 -62 96c0 34 16 64 48 89c33 25 76 38 130 38
c99 0 191 -53 191 -134c0 -76 -82 -133 -92 -140z" />
    <glyph glyph-name="three" unicode="3" horiz-adv-x="508" 
d="M258 115c-5 -4 -11 -11 -20 -20c-15 -17 -23 -26 -35 -26c-11 0 -21 10 -21 23c0 12 9 24 26 37l74 59c39 29 66 79 66 128c0 56 -44 92 -109 92c-25 0 -48 -9 -70 -27c-22 -17 -33 -39 -33 -66c0 -19 6 -38 17 -57l-30 -31c-41 25 -62 60 -62 96c0 34 16 64 48 89
c33 25 76 38 130 38c99 0 191 -53 191 -134c0 -76 -82 -133 -92 -140l-46 -35c96 -20 156 -84 156 -161c0 -90 -88 -167 -199 -167c-115 0 -185 72 -185 113c0 15 9 23 26 23c12 0 19 -9 31 -28c9 -15 16 -25 22 -31c21 -23 50 -39 98 -39c79 0 118 52 118 129
c0 64 -32 120 -101 135z" />
    <glyph glyph-name="four" unicode="4" horiz-adv-x="540" 
d="M315 492h18v-414h11c43 0 71 5 84 16c14 11 25 31 32 60l5 20h21l-8 -132h-145v-75c0 -101 12 -116 96 -116v-21h-262v21c84 0 96 15 96 116v75h-227v19zM90 78h173v267z" />
    <glyph glyph-name="five" unicode="5" horiz-adv-x="493" 
d="M140 363l-15 -177c21 27 69 44 112 44c113 0 193 -92 193 -208c0 -115 -91 -209 -202 -209c-102 0 -163 68 -163 109c0 18 9 27 28 27c13 0 20 -10 31 -31c23 -41 44 -67 104 -67c79 0 119 70 119 171c0 100 -39 166 -119 166c-59 0 -101 -27 -112 -98h-37l31 343h169
c43 0 71 5 84 15c14 11 25 31 32 61h23l-25 -146h-253z" />
    <glyph glyph-name="six" unicode="6" horiz-adv-x="525" 
d="M145 244c5 -188 78 -221 120 -221c86 0 119 73 119 149c0 75 -33 146 -119 146c-59 0 -108 -31 -120 -74zM146 299c27 36 66 59 119 59c111 0 202 -85 202 -187c0 -103 -92 -188 -202 -188c-84 0 -202 58 -202 283c0 176 79 354 230 354c39 0 74 -8 103 -25
s44 -34 44 -51c0 -16 -14 -26 -27 -26c-11 0 -18 7 -33 24c-25 28 -47 46 -87 46c-108 0 -139 -140 -147 -289z" />
    <glyph glyph-name="seven" unicode="7" horiz-adv-x="471" 
d="M240 442h178v-28l-220 -552c-13 -33 -23 -49 -43 -49c-3 0 -7 1 -11 2c-12 3 -23 16 -23 33c0 8 2 17 7 27l238 496h-163c-43 0 -71 -5 -85 -16c-13 -10 -24 -30 -31 -60l-5 -20h-21l42 246h20c0 -68 15 -79 117 -79z" />
    <glyph glyph-name="eight" unicode="8" horiz-adv-x="528" 
d="M273 358c49 27 78 76 78 131c0 45 -28 89 -87 89s-86 -42 -86 -89c0 -60 32 -96 95 -131zM241 310c-61 -35 -98 -89 -98 -160c0 -68 44 -128 121 -128c39 0 68 12 89 37s32 53 32 83c0 73 -49 115 -144 168zM304 342l2 -1c53 -27 83 -43 111 -70c29 -27 49 -65 49 -113
c0 -99 -91 -175 -202 -175c-110 0 -201 75 -201 167c0 100 67 145 146 178c-72 44 -112 84 -112 145c0 41 16 76 49 103c32 27 73 41 118 41c91 0 168 -62 168 -136c0 -64 -48 -102 -128 -139z" />
    <glyph glyph-name="nine" unicode="9" horiz-adv-x="525" 
d="M463 168c0 -175 -79 -355 -230 -355c-80 0 -148 43 -148 76c0 16 15 27 28 27c8 0 19 -8 32 -23c27 -31 47 -47 87 -47c107 0 142 139 147 288c-27 -36 -66 -59 -119 -59c-110 0 -202 85 -202 188c0 102 92 187 202 187c83 0 203 -58 203 -282zM380 189
c-5 188 -78 221 -120 221c-86 0 -119 -73 -119 -148c0 -39 8 -74 27 -101c21 -31 51 -46 92 -46c59 0 108 33 120 74z" />
    <glyph glyph-name="colon" unicode=":" horiz-adv-x="335" 
d="M215 40c0 -27 -21 -48 -48 -48c-25 0 -47 23 -47 48c0 27 22 48 47 48c27 0 48 -21 48 -48zM215 230c0 -27 -21 -48 -48 -48c-25 0 -47 23 -47 48c0 27 22 48 47 48c27 0 48 -21 48 -48z" />
    <glyph glyph-name="semicolon" unicode=";" horiz-adv-x="335" 
d="M215 230c0 -27 -21 -48 -48 -48c-25 0 -47 23 -47 48c0 27 22 48 47 48c27 0 48 -21 48 -48zM175 -8h-8c-25 0 -47 23 -47 48c0 27 22 48 47 48c29 0 54 -22 54 -63c0 -48 -33 -115 -92 -151l-11 12c36 39 50 66 57 106z" />
    <glyph glyph-name="less" unicode="&#x3c;" horiz-adv-x="500" 
d="M195 268l233 -200l-15 -18l-330 218l330 217l15 -17z" />
    <glyph glyph-name="equal" unicode="=" horiz-adv-x="458" 
d="M375 303v-45h-292v45h292zM375 178v-45h-292v45h292z" />
    <glyph glyph-name="greater" unicode="&#x3e;" horiz-adv-x="500" 
d="M88 485l329 -217l-329 -218l-15 18l232 200l-232 200z" />
    <glyph glyph-name="question" unicode="?" horiz-adv-x="504" 
d="M273 40c0 -27 -21 -48 -48 -48c-25 0 -47 23 -47 48c0 27 22 48 47 48c27 0 48 -21 48 -48zM388 459c0 39 -15 69 -46 92c-30 23 -66 34 -109 34c-71 0 -117 -34 -117 -67c0 -16 12 -26 43 -26c21 0 40 -18 40 -39c0 -29 -26 -45 -51 -45c-37 0 -75 38 -75 93
c0 32 16 59 48 82c33 23 73 34 120 34c110 0 213 -65 213 -169c0 -80 -45 -133 -97 -160s-93 -33 -110 -34v-94h-44v164c89 0 185 38 185 135z" />
    <glyph glyph-name="at" unicode="@" horiz-adv-x="708" 
d="M426 246l31 177c-12 13 -33 25 -62 25c-28 0 -53 -15 -74 -44s-35 -65 -42 -107c-3 -19 -4 -36 -4 -51c0 -57 19 -93 62 -93c39 0 80 40 89 93zM508 153c51 0 130 99 130 208c0 143 -109 226 -232 226c-167 0 -301 -147 -301 -309c0 -166 110 -275 265 -275
c76 0 144 22 212 65l11 -19c-77 -55 -155 -80 -231 -80c-178 0 -323 134 -323 306c0 192 161 351 352 351c158 0 279 -106 279 -263c0 -129 -102 -246 -186 -246c-36 0 -61 23 -66 51c-21 -29 -67 -55 -99 -55c-68 0 -108 56 -108 137c0 15 1 31 4 47
c19 100 100 183 185 183c27 0 43 -5 64 -17h56l-44 -250c-1 -9 -2 -17 -2 -24c0 -24 11 -36 34 -36z" />
    <glyph glyph-name="A" unicode="A" 
d="M408 208h-242l-48 -111c-7 -15 -10 -27 -10 -36c0 -28 27 -40 88 -40v-21h-234v21c84 3 85 10 117 81l3 6l220 509h13l221 -509l3 -6c32 -71 33 -78 116 -81v-21h-277v21c61 0 88 12 88 40c0 9 -3 21 -10 36zM182 245h209l-105 241z" />
    <glyph glyph-name="B" unicode="B" horiz-adv-x="598" 
d="M308 37h26c83 0 128 55 128 131c0 77 -45 133 -128 133h-121v-148c0 -101 11 -116 95 -116zM302 563h-89v-225h89c72 0 110 47 110 112s-38 113 -110 113zM422 326c77 -24 128 -86 128 -158c0 -49 -19 -89 -57 -121c-38 -31 -91 -47 -158 -47h-297v21c84 0 95 15 95 117
v325c0 102 -11 116 -95 116v21h269c123 0 193 -63 193 -150c0 -51 -31 -96 -78 -124z" />
    <glyph glyph-name="C" unicode="C" horiz-adv-x="692" 
d="M618 231v-220h-20c-5 23 -21 48 -34 57c-52 -55 -117 -85 -186 -85c-167 0 -307 144 -307 317s140 317 307 317c69 0 134 -30 186 -85c15 11 30 34 34 57h20v-220h-20c-28 131 -107 209 -216 209c-156 0 -218 -148 -218 -278c0 -129 63 -277 218 -277
c109 0 188 79 216 208h20z" />
    <glyph glyph-name="D" unicode="D" horiz-adv-x="713" 
d="M309 0h-271v21c84 0 95 15 95 117v325c0 102 -11 116 -95 116v21h271c229 0 334 -132 334 -300s-105 -300 -334 -300zM310 563h-97v-410c3 -104 7 -113 93 -116h4c190 0 237 138 237 263c0 126 -47 263 -237 263z" />
    <glyph glyph-name="E" unicode="E" horiz-adv-x="583" 
d="M528 0h-490v21c84 0 95 15 95 117v325c0 102 -11 116 -95 116v21h456l9 -132h-21l-5 20c-8 29 -19 49 -32 59c-13 11 -41 16 -84 16h-148v-227h50c102 0 116 11 116 96h21v-229h-21c0 85 -14 96 -116 96h-50v-146c0 -101 11 -116 95 -116h86c43 0 71 5 84 16
c14 11 25 31 32 60l5 20h21z" />
    <glyph glyph-name="F" unicode="F" horiz-adv-x="536" 
d="M378 563h-165v-227h50c102 0 116 11 116 96h21v-229h-21c0 85 -14 96 -116 96h-50v-161c0 -102 11 -117 95 -117v-21h-270v21c84 0 95 15 95 117v325c0 102 -11 116 -95 116v21h473l8 -132h-21l-5 20c-7 29 -18 49 -31 59c-13 11 -41 16 -84 16z" />
    <glyph glyph-name="G" unicode="G" horiz-adv-x="725" 
d="M565 163c0 44 -26 65 -94 65v20h262v-20c-84 0 -95 -15 -95 -117v-76c-49 0 -83 -10 -134 -27c-52 -17 -81 -25 -126 -25c-167 0 -307 144 -307 317s140 317 307 317c69 0 134 -30 186 -85c15 11 30 34 34 57h20v-220h-20c-27 131 -106 209 -217 209
c-156 0 -218 -148 -218 -278c0 -132 58 -274 237 -274c46 0 85 12 117 36c32 25 48 58 48 101z" />
    <glyph glyph-name="H" unicode="H" horiz-adv-x="765" 
d="M553 300h-340v-162c0 -102 11 -117 95 -117v-21h-270v21c84 0 95 15 95 117v325c0 102 -11 116 -95 116v21h270v-21c-84 0 -95 -14 -95 -116v-126h340v126c0 101 -11 116 -96 116v21h271v-21c-85 0 -96 -14 -96 -116v-325c0 -102 11 -117 96 -117v-21h-271v21
c84 0 96 16 96 117v162z" />
    <glyph glyph-name="I" unicode="I" horiz-adv-x="346" 
d="M308 21v-21h-270v21c84 0 95 15 95 117v325c0 102 -11 116 -95 116v21h270v-21c-84 0 -95 -14 -95 -116v-325c0 -102 11 -117 95 -117z" />
    <glyph glyph-name="J" unicode="J" horiz-adv-x="346" 
d="M38 -193c61 0 95 45 95 138v518c0 102 -11 116 -95 116v21h270v-21c-84 0 -95 -14 -95 -116v-507c0 -139 -92 -179 -175 -179c-62 0 -147 35 -147 95c0 19 15 34 35 34c19 0 34 -15 34 -34c0 -33 30 -65 78 -65z" />
    <glyph glyph-name="K" unicode="K" horiz-adv-x="730" 
d="M471 498l-175 -150l310 -269c18 -15 40 -29 67 -41c27 -11 47 -17 62 -17v-21h-281v21c41 0 61 8 61 24c0 10 -8 21 -23 34l-253 219l-26 -21v-139c0 -102 11 -117 95 -117v-21h-270v21c84 0 95 15 95 117v325c0 102 -11 116 -95 116v21h270v-21c-84 0 -95 -14 -95 -116
v-140l205 175c33 28 49 49 49 62s-15 19 -45 19v21h232v-21c-37 0 -68 -6 -92 -17s-54 -33 -91 -64z" />
    <glyph glyph-name="L" unicode="L" horiz-adv-x="575" 
d="M561 0h-523v21c84 0 95 15 95 117v325c0 102 -11 116 -95 116v21h270v-21c-84 0 -95 -14 -95 -116v-310c0 -101 11 -116 95 -116h120c43 0 71 5 84 16s24 31 31 60l5 20h21z" />
    <glyph glyph-name="M" unicode="M" horiz-adv-x="825" 
d="M392 -17l-222 511v-356c0 -101 12 -117 96 -117v-21h-228v21c84 0 95 15 95 117v325c0 102 -11 116 -95 116v21h170l212 -487l211 487h157v-21c-85 0 -96 -14 -96 -116v-325c0 -102 11 -117 96 -117v-21h-270v21c84 0 95 15 95 117v326l-208 -481h-13z" />
    <glyph glyph-name="N" unicode="N" horiz-adv-x="725" 
d="M179 600l384 -476v339c0 102 -11 116 -95 116v21h228v-21c-84 0 -96 -15 -96 -116v-480h-23l-407 503v-348c0 -101 12 -117 96 -117v-21h-228v21c84 0 95 15 95 117v325c0 102 -11 116 -95 116v21h141z" />
    <glyph glyph-name="O" unicode="O" horiz-adv-x="808" 
d="M738 300c0 -173 -151 -317 -334 -317c-181 0 -333 144 -333 317s152 317 333 317c183 0 334 -144 334 -317zM404 578c-167 0 -238 -148 -238 -278c0 -129 71 -277 238 -277c168 0 239 148 239 277c0 130 -71 278 -239 278z" />
    <glyph glyph-name="P" unicode="P" horiz-adv-x="540" 
d="M38 600h264c67 0 120 -16 158 -48s57 -72 57 -121s-19 -89 -57 -121c-38 -31 -91 -47 -158 -47h-89v-125c0 -102 11 -117 95 -117v-21h-270v21c84 0 95 15 95 117v325c0 102 -11 116 -95 116v21zM213 299h88c83 0 127 55 127 132s-44 132 -127 132h-88v-264z" />
    <glyph glyph-name="Q" unicode="Q" horiz-adv-x="808" 
d="M350 -13c-162 27 -279 161 -279 313c0 173 152 317 333 317c183 0 334 -144 334 -317c0 -167 -135 -296 -300 -315c-44 -4 -98 -25 -133 -57c22 5 44 7 65 7c68 0 111 -20 179 -60c60 -35 95 -51 144 -51c89 0 140 30 173 97l16 -8c-27 -74 -93 -166 -208 -166
c-59 0 -107 30 -184 86c-65 48 -102 71 -142 71c-53 0 -73 -17 -93 -45c-9 -13 -15 -21 -27 -22c-23 0 -34 11 -34 32c0 32 69 91 156 118zM404 578c-167 0 -241 -148 -241 -278c0 -129 74 -277 241 -277c168 0 242 147 242 277s-74 278 -242 278z" />
    <glyph glyph-name="R" unicode="R" horiz-adv-x="620" 
d="M213 299h88c83 0 127 55 127 132s-44 132 -127 132h-88v-264zM339 263l98 -115c61 -72 127 -120 186 -127v-21h-165l-198 263h-47v-125c0 -102 11 -117 95 -117v-21h-270v21c84 0 95 15 95 117v325c0 102 -11 116 -95 116v21h264c67 0 120 -16 158 -48s57 -72 57 -121
c0 -89 -67 -156 -178 -168z" />
    <glyph glyph-name="S" unicode="S" horiz-adv-x="498" 
d="M107 30c-15 -13 -25 -28 -29 -47h-20v220h20c0 -15 3 -51 26 -96c24 -44 75 -84 159 -84c72 0 125 46 125 110c0 44 -42 82 -115 121l-96 49c-63 33 -111 93 -111 165c0 42 16 77 47 106s71 43 119 43c53 0 86 -14 122 -41c15 13 25 28 29 46h20v-220h-21
c-8 86 -40 175 -153 175c-56 0 -97 -38 -97 -89c0 -25 9 -46 26 -63c18 -17 50 -37 95 -61l96 -49c72 -36 104 -92 104 -152c0 -108 -86 -180 -190 -180c-45 0 -79 13 -120 32c-17 9 -29 14 -36 15z" />
    <glyph glyph-name="T" unicode="T" horiz-adv-x="641" 
d="M17 600h607l9 -135h-21l-5 20c-8 30 -19 50 -32 60c-13 11 -41 16 -84 16h-131v-423c0 -101 12 -117 96 -117v-21h-271v21c84 0 96 16 96 117v423h-131c-43 0 -71 -5 -84 -16c-13 -10 -24 -30 -32 -60l-5 -20h-21z" />
    <glyph glyph-name="U" unicode="U" horiz-adv-x="716" 
d="M557 218v245c0 101 -11 116 -96 116v21h234v-21c-84 0 -96 -15 -96 -116v-240c0 -75 -23 -134 -68 -177c-45 -42 -103 -63 -173 -63c-69 0 -127 21 -172 63c-45 43 -68 102 -68 177v240c0 102 -11 116 -95 116v21h270v-21c-84 0 -95 -14 -95 -116v-245
c0 -125 70 -190 175 -190c111 0 184 65 184 190z" />
    <glyph glyph-name="V" unicode="V" 
d="M654 600v-21c-41 0 -63 -4 -78 -16c-13 -11 -22 -26 -39 -66c-1 -2 -1 -4 -2 -5l-220 -509h-13l-221 509c-1 1 -1 3 -2 5c-17 40 -25 55 -40 66c-13 12 -36 16 -77 16v21h277v-21c-61 0 -88 -12 -88 -39c0 -10 3 -22 10 -37l170 -389l168 389c7 15 10 27 10 36
c0 28 -27 40 -88 40v21h233z" />
    <glyph glyph-name="W" unicode="W" horiz-adv-x="793" 
d="M533 -17l-140 443l-141 -443h-14l-161 509c-28 77 -32 85 -120 87v21h281v-21c-63 0 -86 -10 -86 -41c0 -9 2 -20 7 -35l109 -345l140 442h15l140 -441l109 344c4 13 6 24 6 33c0 31 -21 43 -76 43v21h225v-21c-85 0 -96 -18 -119 -87l-162 -509h-13z" />
    <glyph glyph-name="X" unicode="X" horiz-adv-x="614" 
d="M405 97l-112 166l-130 -166c-12 -16 -18 -30 -18 -41c0 -21 21 -35 72 -35v-21h-238v21c64 0 100 32 144 87l147 190l-131 194c-40 57 -79 87 -144 87v21h284v-21c-49 0 -72 -12 -72 -33c0 -11 6 -25 19 -43l95 -140l109 140c14 18 21 33 21 44c0 21 -25 32 -74 32v21
h237v-21c-35 0 -61 -6 -78 -17s-36 -31 -57 -58c-5 -6 -8 -10 -9 -12l-127 -164l150 -220c43 -60 79 -87 144 -87v-21h-285v21c51 0 73 11 73 32c0 11 -7 25 -20 44z" />
    <glyph glyph-name="Y" unicode="Y" horiz-adv-x="625" 
d="M518 492l-165 -250v-104c0 -102 11 -117 95 -117v-21h-270v21c84 0 95 15 95 117v97l-166 257c-22 33 -43 56 -63 68c-20 13 -47 19 -82 19v21h285v-21c-51 0 -72 -11 -72 -32c0 -11 6 -25 18 -44l144 -220l146 220c13 21 20 36 20 47c0 19 -25 29 -74 29v21h234v-21
c-39 0 -67 -6 -85 -18c-17 -12 -37 -35 -60 -69z" />
    <glyph glyph-name="Z" unicode="Z" horiz-adv-x="575" 
d="M43 23l337 540h-184c-43 0 -71 -5 -85 -16c-13 -10 -24 -30 -31 -59l-5 -20h-21l9 132h426v-12l-345 -551h225c43 0 71 5 84 16c14 11 25 31 32 60l5 20h21l-8 -133h-460v23z" />
    <glyph glyph-name="bracketleft" unicode="[" horiz-adv-x="358" 
d="M319 -56v-32h-202v766h202v-32h-137v-702h137z" />
    <glyph glyph-name="backslash" unicode="\" horiz-adv-x="348" 
d="M-1 618l384 -618l-36 -18l-384 618z" />
    <glyph glyph-name="bracketright" unicode="]" horiz-adv-x="358" 
d="M242 678v-766h-203v32h138v702h-138v32h203z" />
    <glyph glyph-name="asciicircum" unicode="^" horiz-adv-x="485" 
d="M42 338l201 279l200 -279l-18 -15l-182 182l-184 -182z" />
    <glyph glyph-name="underscore" unicode="_" horiz-adv-x="358" 
d="M359 0v-44h-360v44h360z" />
    <glyph glyph-name="quoteleft" unicode="&#x2018;" horiz-adv-x="252" 
d="M178 414l-11 -11c-59 36 -92 102 -92 150c0 41 25 64 54 64c25 0 47 -22 47 -49c0 -25 -22 -48 -47 -48c-4 0 -7 0 -8 1c7 -40 21 -70 57 -107z" />
    <glyph glyph-name="a" unicode="a" horiz-adv-x="403" 
d="M373 39l14 -19c-19 -21 -41 -31 -66 -31c-40 0 -63 19 -68 58c-48 -43 -84 -60 -125 -60c-51 0 -90 33 -90 84c0 83 94 122 213 142c0 79 -12 105 -67 105c-27 0 -57 -19 -57 -48c0 -20 -15 -35 -34 -35c-20 0 -35 15 -35 35c0 23 13 42 38 57c26 15 56 23 89 23
c97 0 137 -40 137 -136v-151c0 -26 8 -39 23 -39c9 0 20 7 28 15zM251 80v102c-92 -21 -138 -54 -138 -99c0 -31 20 -51 47 -51c24 0 48 11 91 48z" />
    <glyph glyph-name="b" unicode="b" horiz-adv-x="497" 
d="M153 231v-128c19 -49 56 -80 101 -80c75 0 114 59 114 144s-39 143 -114 143c-45 0 -82 -31 -101 -79zM147 50l-44 -67h-21v471c0 101 -12 117 -79 117v21l150 25v-326c32 39 73 59 122 59c94 0 173 -83 173 -183s-79 -184 -173 -184c-52 0 -99 26 -128 67z" />
    <glyph glyph-name="c" unicode="c" horiz-adv-x="393" 
d="M225 318c-27 0 -49 -15 -68 -46c-19 -30 -28 -68 -28 -114c0 -83 41 -133 121 -133c35 0 75 17 107 46l17 -22c-39 -41 -93 -66 -149 -66c-54 0 -97 16 -129 49s-48 75 -48 126c0 115 95 192 177 192c79 0 119 -32 119 -72c0 -21 -13 -43 -44 -43c-21 0 -39 17 -39 40
c0 31 -16 43 -36 43z" />
    <glyph glyph-name="d" unicode="d" horiz-adv-x="513" 
d="M344 102v129c-19 48 -57 79 -101 79c-75 0 -114 -58 -114 -143s39 -144 114 -144c44 0 82 31 101 79zM344 291v163c0 102 -10 117 -79 117v21l150 25v-471c0 -101 12 -117 79 -117v-21l-133 -25c-4 9 -12 40 -16 61c-29 -37 -71 -61 -123 -61c-94 0 -174 84 -174 184
s79 183 174 183c49 0 90 -20 122 -59z" />
    <glyph glyph-name="e" unicode="e" horiz-adv-x="422" 
d="M134 229h166c2 6 3 12 3 19c0 33 -24 62 -75 62c-43 0 -79 -32 -94 -81zM369 192h-241c-1 -11 -2 -21 -2 -32c0 -81 44 -135 132 -135c33 0 82 19 110 46l18 -22c-36 -39 -97 -66 -153 -66c-109 0 -185 83 -185 184c0 105 92 183 185 183c39 0 72 -12 99 -36
c28 -24 42 -53 42 -88c0 -11 -2 -23 -5 -34z" />
    <glyph glyph-name="f" unicode="f" horiz-adv-x="313" 
d="M288 298h-100v-160c0 -102 11 -117 79 -117v-21h-229v21c67 0 79 16 79 117v160h-82v35h82v96c0 133 80 188 164 188c61 0 100 -38 100 -74c0 -24 -11 -36 -33 -36c-20 0 -27 11 -36 35c-11 28 -20 42 -49 42c-52 0 -75 -43 -75 -155v-96h100v-35z" />
    <glyph glyph-name="g" unicode="g" horiz-adv-x="423" 
d="M263 214c0 63 -25 104 -72 104s-73 -43 -73 -104c0 -60 26 -103 73 -103s72 42 72 103zM98 36c0 -24 43 -34 91 -38c129 -11 182 -63 182 -131c0 -41 -17 -73 -51 -97c-33 -25 -75 -37 -126 -37c-105 0 -175 49 -175 106c0 33 21 60 63 82l18 -11
c-21 -23 -32 -45 -32 -65c0 -23 13 -40 39 -53s55 -20 87 -20c33 0 61 7 86 22c25 14 38 32 38 55c0 44 -43 61 -134 70c-89 8 -142 37 -142 93c0 36 31 64 84 80c-51 25 -84 69 -84 122c0 37 15 69 44 96s64 40 105 40c40 0 74 -13 103 -38c17 21 54 38 75 38
c37 0 59 -25 59 -52c0 -17 -10 -31 -26 -32c-19 0 -24 8 -31 23s-12 22 -29 22c-10 0 -20 -5 -31 -16c19 -23 29 -50 29 -81c0 -35 -13 -66 -39 -91s-56 -40 -91 -45c-53 -6 -110 -15 -112 -42z" />
    <glyph glyph-name="h" unicode="h" horiz-adv-x="522" 
d="M503 21v-21h-221v21c65 2 69 11 71 117v58c0 67 -25 107 -76 107c-27 0 -51 -10 -74 -30c-23 -19 -34 -43 -34 -70v-65c0 -106 7 -117 63 -117v-21h-213v21c69 0 79 15 79 117v316c0 102 -10 117 -79 117v21l150 25v-339c33 41 78 72 131 72c87 0 123 -57 123 -149v-63
c0 -101 12 -117 80 -117z" />
    <glyph glyph-name="i" unicode="i" horiz-adv-x="286" 
d="M267 21v-21h-229v21c67 0 79 16 79 117v50c0 101 -12 116 -79 116v21l150 25v-212c0 -102 11 -117 79 -117zM196 493c0 -25 -20 -45 -44 -45s-44 20 -44 45c0 24 20 44 44 44s44 -20 44 -44z" />
    <glyph glyph-name="j" unicode="j" horiz-adv-x="273" 
d="M188 350v-428c0 -125 -64 -189 -147 -189c-35 0 -63 9 -84 27c-22 17 -33 36 -33 55s10 29 29 29c21 0 29 -11 38 -35c12 -28 22 -43 55 -43c44 0 71 39 71 156v266c0 101 -12 116 -79 116v21zM196 493c0 -25 -20 -45 -44 -45s-44 20 -44 45c0 24 20 44 44 44
s44 -20 44 -44z" />
    <glyph glyph-name="k" unicode="k" horiz-adv-x="440" 
d="M318 277l-85 -70l161 -162c16 -15 43 -24 59 -24v-21h-111l-164 163l-9 -7v-18c0 -101 12 -117 79 -117v-21h-229v21c69 0 79 15 79 117v316c0 102 -10 117 -79 117v21l150 25v-425l84 68c12 10 18 19 18 28c0 17 -16 25 -48 25v20h200v-20c-7 0 -68 -7 -105 -36z" />
    <glyph glyph-name="l" unicode="l" horiz-adv-x="268" 
d="M248 21v-21h-229v21c69 0 79 15 79 117v316c0 102 -10 117 -79 117v21l150 25v-479c0 -101 12 -117 79 -117z" />
    <glyph glyph-name="m" unicode="m" horiz-adv-x="778" 
d="M433 203v-65c1 -109 5 -114 63 -117v-21h-196v21c57 4 62 7 63 117v58c0 68 -21 107 -72 107c-37 0 -103 -41 -103 -100v-65c0 -106 6 -117 62 -117v-21h-212v21c67 0 79 16 79 117v50c0 101 -12 116 -79 116v21l133 25c5 -9 14 -51 17 -72c32 40 77 72 130 72
c59 0 91 -27 106 -75c13 19 33 36 59 51c27 16 54 24 81 24c84 0 115 -56 115 -149v-63c0 -101 12 -117 79 -117v-21h-212v21c57 0 62 9 62 117v58c0 68 -20 107 -71 107c-36 0 -104 -40 -104 -100z" />
    <glyph glyph-name="n" unicode="n" horiz-adv-x="555" 
d="M188 278c32 40 79 72 139 72c87 0 130 -60 130 -149v-63c0 -102 11 -117 79 -117v-21h-229v21c67 0 79 16 79 117v58c0 68 -26 107 -83 107c-28 0 -54 -10 -79 -30c-24 -20 -36 -43 -36 -70v-65c2 -106 6 -115 70 -117v-21h-220v21c67 0 79 16 79 117v50
c0 101 -12 116 -79 116v21l133 25c5 -9 14 -51 17 -72z" />
    <glyph glyph-name="o" unicode="o" horiz-adv-x="510" 
d="M452 167c0 -100 -91 -184 -202 -184c-110 0 -202 84 -202 184s92 183 202 183c111 0 202 -83 202 -183zM371 167c0 85 -42 145 -121 145s-121 -61 -121 -145s42 -145 121 -145s121 60 121 145z" />
    <glyph glyph-name="p" unicode="p" horiz-adv-x="513" 
d="M384 167c0 84 -40 143 -113 143c-45 0 -82 -31 -102 -78v-129c20 -49 57 -80 102 -80c73 0 113 60 113 144zM169 43v-156c0 -101 12 -116 79 -116v-21h-229v21c69 0 79 14 79 116v301c0 102 -10 116 -79 116v21l134 25c4 -8 11 -36 15 -61c32 37 72 61 124 61
c94 0 173 -83 173 -183s-79 -184 -173 -184c-49 0 -92 23 -123 60z" />
    <glyph glyph-name="q" unicode="q" horiz-adv-x="497" 
d="M344 103v128c-19 48 -57 79 -101 79c-75 0 -114 -58 -114 -143s39 -144 114 -144c44 0 82 32 101 80zM415 350v-463c0 -101 12 -116 79 -116v-21h-229v21c69 0 79 14 79 116v156c-31 -37 -73 -60 -122 -60c-94 0 -174 84 -174 184s79 183 174 183c52 0 99 -24 128 -67
l44 67h21z" />
    <glyph glyph-name="r" unicode="r" horiz-adv-x="393" 
d="M372 288c0 -25 -12 -47 -40 -47c-19 0 -35 17 -35 36c0 22 -11 33 -32 33c-15 0 -32 -11 -50 -32s-27 -50 -27 -85v-55c0 -102 11 -117 79 -117v-21h-229v21c67 0 79 16 79 117v50c0 101 -12 116 -79 116v21l133 25c5 -9 14 -51 17 -72c20 40 65 72 105 72
c51 0 79 -33 79 -62z" />
    <glyph glyph-name="s" unicode="s" horiz-adv-x="323" 
d="M289 92c0 -64 -52 -109 -119 -109c-25 0 -45 9 -70 22c-12 7 -20 10 -25 10c-8 0 -12 -11 -12 -32h-20v146h20c0 -26 10 -51 30 -76c20 -24 47 -36 80 -36c32 0 56 23 56 51c0 24 -19 42 -56 61l-55 30c-45 24 -67 64 -67 100c0 52 47 91 102 91c31 0 50 -7 70 -18
c7 -3 11 -5 13 -5c5 0 7 8 7 23h21v-116h-21c0 45 -32 84 -81 84c-34 0 -51 -14 -51 -43c0 -23 14 -36 61 -61l48 -26c44 -25 69 -60 69 -96z" />
    <glyph glyph-name="t" unicode="t" horiz-adv-x="295" 
d="M80 96v202h-52v24c57 12 81 52 89 121h34v-110h87v-35h-87v-202c0 -49 15 -73 45 -73c19 0 40 12 65 35l17 -17c-28 -35 -72 -58 -105 -58c-57 0 -93 37 -93 113z" />
    <glyph glyph-name="u" unicode="u" horiz-adv-x="522" 
d="M503 29v-21l-134 -25c-4 9 -12 43 -16 64c-32 -33 -79 -64 -131 -64c-87 0 -124 58 -124 150v63c0 102 -10 117 -79 117v20h150v-195c0 -68 24 -107 76 -107c41 0 108 39 108 99v66c0 101 -12 117 -80 117v20h150v-187c0 -101 12 -117 80 -117z" />
    <glyph glyph-name="v" unicode="v" horiz-adv-x="364" 
d="M377 333v-20c-35 0 -52 -15 -71 -59l-113 -272h-20l-122 272c-19 44 -36 59 -69 59v20h178v-20c-29 0 -43 -7 -43 -21c0 -8 4 -21 11 -38l71 -160l67 160c7 17 10 29 10 37c0 15 -13 22 -39 22v20h140z" />
    <glyph glyph-name="w" unicode="w" horiz-adv-x="548" 
d="M371 -18l-99 231l-86 -231h-20l-118 272c-19 44 -37 59 -68 59v20h181v-20c-29 0 -44 -10 -44 -29c0 -8 3 -18 8 -30l68 -156l81 235h22l102 -235l54 156c5 13 7 23 7 31c0 19 -12 28 -36 28v20h140v-20c-35 0 -55 -15 -71 -59l-101 -272h-20z" />
    <glyph glyph-name="x" unicode="x" horiz-adv-x="403" 
d="M223 79l-38 53l-50 -53c-16 -16 -24 -29 -24 -38c0 -13 15 -20 45 -20v-21h-154v21c21 0 44 15 87 58l76 80l-69 95c-36 47 -55 59 -88 59v20h202v-20c-33 0 -50 -6 -50 -18c0 -9 7 -22 21 -41l32 -44l42 44c14 14 21 26 21 36c0 15 -14 23 -42 23v20h163v-20
c-28 0 -56 -18 -96 -59l-68 -71l75 -104c31 -44 54 -58 95 -58v-21h-210v21c31 0 47 7 47 21c0 9 -6 21 -17 37z" />
    <glyph glyph-name="y" unicode="y" horiz-adv-x="373" 
d="M38 -237c0 16 7 25 24 41c23 23 38 40 51 76l50 125l-115 249c-20 45 -35 59 -67 59v20h177v-20c-29 0 -44 -7 -44 -21c0 -9 4 -21 12 -38l73 -160l64 160c7 16 10 28 10 36c0 15 -13 23 -39 23v20h140v-20c-32 0 -54 -16 -71 -59l-195 -487c-8 -21 -22 -37 -37 -37
c-17 0 -33 10 -33 33z" />
    <glyph glyph-name="z" unicode="z" horiz-adv-x="363" 
d="M43 333h277v-16l-191 -285h61c43 0 72 4 85 12c14 9 24 24 30 47l5 20h21l-8 -111h-290v17l191 285h-47c-43 0 -71 -4 -85 -13c-14 -8 -24 -23 -30 -46l-5 -20h-21z" />
    <glyph glyph-name="braceleft" unicode="{" horiz-adv-x="358" 
d="M42 288v16l3 1c64 22 90 33 93 173c0 60 17 103 44 134c28 32 57 49 108 77c15 9 24 13 25 14l17 -21c-45 -32 -71 -51 -92 -79c-20 -28 -32 -67 -32 -123c0 -143 -29 -166 -104 -184c75 -18 104 -40 104 -184c0 -56 12 -94 32 -123c21 -29 47 -47 92 -79l-17 -21
c-3 2 -11 7 -26 15c-51 28 -79 45 -107 76c-27 31 -44 74 -44 134c0 68 -9 108 -25 131s-33 30 -68 42z" />
    <glyph glyph-name="bar" unicode="|" horiz-adv-x="270" 
d="M115 0v708h44v-708h-44z" />
    <glyph glyph-name="braceright" unicode="}" horiz-adv-x="358" 
d="M317 304v-16l-2 -1c-66 -23 -90 -31 -94 -173c0 -60 -17 -104 -45 -135c-27 -31 -55 -47 -107 -76c-10 -5 -19 -10 -26 -14l-16 21c47 32 71 50 91 79c20 28 32 67 32 123c2 143 29 166 104 184c-75 18 -104 41 -104 184c0 56 -12 95 -32 123c-20 29 -44 47 -91 79l16 21
c5 -3 14 -8 25 -14c52 -29 80 -45 108 -76s45 -74 45 -135c4 -141 28 -150 94 -173z" />
    <glyph glyph-name="asciitilde" unicode="~" horiz-adv-x="423" 
d="M298 258c29 0 47 23 58 63h21c0 -81 -36 -132 -92 -132c-21 0 -46 13 -89 40c-39 23 -59 34 -75 34c-23 0 -48 -29 -56 -62h-21c0 76 38 129 86 129c24 0 48 -13 88 -37c37 -23 59 -35 80 -35z" />
    <glyph glyph-name="exclamdown" unicode="&#xa1;" horiz-adv-x="313" 
d="M194 390c0 -27 -21 -48 -48 -48c-25 0 -47 23 -47 48c0 27 22 48 47 48c27 0 48 -21 48 -48zM194 -138c0 -27 -23 -49 -48 -49s-47 22 -47 49c0 14 2 38 6 73c5 42 10 88 14 138c5 50 8 116 10 197h34c3 -81 6 -146 10 -195s9 -96 14 -141c5 -34 7 -58 7 -72z" />
    <glyph glyph-name="cent" unicode="&#xa2;" horiz-adv-x="447" 
d="M248 418v-290c9 -2 19 -3 29 -3c33 0 75 17 106 46l18 -22c-39 -41 -93 -66 -149 -66h-4v-166h-36v170c-91 16 -154 84 -154 171c0 97 79 167 154 186v173h36v-167c81 0 123 -31 123 -72c0 -21 -13 -43 -44 -43c-21 0 -39 17 -39 40c0 33 -17 43 -40 43zM212 138v269
c-41 -25 -73 -82 -73 -149c0 -56 28 -100 73 -120z" />
    <glyph glyph-name="sterling" unicode="&#xa3;" horiz-adv-x="513" 
d="M133 138v160h-81v35h81v96c0 133 80 188 165 188c61 0 99 -39 99 -76c0 -23 -11 -34 -33 -34c-20 0 -26 11 -35 34c-11 28 -19 43 -50 43c-52 0 -75 -43 -75 -155v-96h101v-35h-101v-145c0 -101 12 -116 96 -116h65c43 0 71 5 84 16c14 11 25 31 32 60l5 20h21l-9 -133
h-460v21c84 0 95 15 95 117z" />
    <glyph glyph-name="yen" unicode="&#xa5;" horiz-adv-x="625" 
d="M475 234h-122v-46h122v-44h-122v-6c0 -102 11 -117 95 -117v-21h-270v21c84 0 95 15 95 117v6h-150v44h150v46h-150v44h122l-138 214c-22 33 -43 56 -63 68c-20 13 -47 19 -82 19v21h285v-21c-51 0 -72 -11 -72 -32c0 -11 6 -25 18 -44l144 -220l146 220
c13 21 20 36 20 47c0 19 -25 29 -74 29v21h234v-21c-39 0 -67 -6 -85 -18c-17 -12 -37 -35 -60 -69l-141 -214h98v-44z" />
    <glyph glyph-name="florin" unicode="&#x192;" horiz-adv-x="316" 
d="M189 298v-376c0 -125 -63 -189 -146 -189c-35 0 -64 9 -85 27s-32 37 -32 56c0 17 9 27 26 28c23 0 30 -12 41 -36c12 -28 23 -42 55 -42c44 0 70 39 70 156v376h-81v35h81v96c0 133 80 188 165 188c61 0 99 -39 99 -76c0 -23 -11 -34 -33 -34c-20 0 -26 11 -35 34
c-11 28 -19 43 -50 43c-52 0 -75 -43 -75 -155v-96h101v-35h-101z" />
    <glyph glyph-name="section" unicode="&#xa7;" horiz-adv-x="398" 
d="M285 223c7 13 11 27 11 43c0 31 -31 57 -82 84l-68 35s-1 1 -4 2s-4 2 -5 3c-11 -11 -16 -23 -16 -38c0 -33 26 -56 87 -88l67 -35c4 -1 7 -3 10 -6zM101 417c-25 23 -38 52 -38 86c0 31 12 58 36 80c24 23 54 34 89 34c39 0 73 -12 96 -28c8 8 13 18 14 29h20v-170h-20
c-5 63 -36 131 -105 131c-40 0 -72 -24 -72 -60c0 -33 26 -55 87 -87l67 -35c51 -27 78 -68 78 -109c0 -36 -11 -66 -34 -91c23 -23 34 -49 34 -76c0 -40 -14 -73 -42 -99c-27 -26 -61 -39 -100 -39c-35 0 -61 10 -96 26c-8 4 -14 7 -18 8c-9 -9 -14 -20 -17 -34h-18v172h20
c0 -13 13 -133 129 -133c51 0 85 28 85 76c0 29 -31 57 -82 85l-68 35c-48 23 -83 65 -83 117c0 31 14 62 38 82z" />
    <glyph glyph-name="currency" unicode="&#xa4;" horiz-adv-x="500" 
d="M133 332l-45 45l34 34l45 -46c23 17 50 26 81 26c29 0 56 -8 80 -25l45 46l35 -34l-46 -46c17 -25 25 -51 25 -80c0 -31 -8 -57 -25 -80l46 -47l-35 -34l-45 47c-24 -17 -51 -25 -80 -25c-31 0 -57 8 -80 25l-46 -47l-34 35l45 46c-17 23 -25 50 -25 80c0 27 8 53 25 80z
M248 338c-48 0 -86 -39 -86 -86c0 -48 38 -86 86 -86c47 0 85 38 85 86c0 47 -38 86 -85 86z" />
    <glyph glyph-name="quotesingle" unicode="'" horiz-adv-x="245" 
d="M75 568c0 27 22 49 47 49s48 -22 48 -49c0 -6 -3 -18 -10 -36c-15 -41 -26 -79 -30 -139h-17c-4 61 -14 96 -29 139c-6 18 -9 30 -9 36z" />
    <glyph glyph-name="quotedblleft" unicode="&#x201c;" horiz-adv-x="418" 
d="M345 414l-12 -11c-57 37 -91 102 -91 150c0 41 25 64 54 64c25 0 47 -22 47 -49c0 -25 -22 -48 -47 -48c-4 0 -7 0 -8 1c5 -39 20 -68 57 -107zM178 414l-11 -11c-59 36 -92 102 -92 150c0 41 25 64 54 64c25 0 47 -22 47 -49c0 -25 -22 -48 -47 -48c-4 0 -7 0 -8 1
c7 -40 21 -70 57 -107z" />
    <glyph glyph-name="guillemotleft" unicode="&#xab;" horiz-adv-x="667" 
d="M195 268l233 -200l-15 -18l-330 218l330 217l15 -17zM405 268l174 -146l-11 -20l-275 166l275 165l11 -19z" />
    <glyph glyph-name="guilsinglleft" unicode="&#x2039;" horiz-adv-x="500" 
d="M195 268l233 -200l-15 -18l-330 218l330 217l15 -17z" />
    <glyph glyph-name="guilsinglright" unicode="&#x203a;" horiz-adv-x="500" 
d="M88 485l329 -217l-329 -218l-15 18l232 200l-232 200z" />
    <glyph glyph-name="endash" unicode="&#x2013;" horiz-adv-x="525" 
d="M525 227v-44h-526v44h526z" />
    <glyph glyph-name="dagger" unicode="&#x2020;" horiz-adv-x="448" 
d="M328 397l-90 29l27 -203l-37 -410h-8l-37 410l28 204l-92 -30c-4 -1 -8 -2 -11 -2c-24 0 -46 23 -46 48s22 47 46 47c3 0 7 -1 11 -2l94 -30l-35 101c0 1 0 3 -1 6v5c0 25 22 47 47 47s48 -22 48 -47c0 -1 0 -3 -1 -5c-1 -3 -1 -5 -1 -6l-34 -101l92 30c4 1 8 2 12 2
c24 0 46 -22 46 -47s-22 -48 -46 -48c-4 0 -8 1 -12 2z" />
    <glyph glyph-name="daggerdbl" unicode="&#x2021;" horiz-adv-x="448" 
d="M386 -20c0 -24 -23 -48 -47 -48c-2 0 -4 0 -6 1s-4 1 -5 1l-92 31l34 -102c0 -1 0 -3 1 -5s1 -4 1 -6c0 -23 -23 -46 -48 -46s-47 23 -47 46v6c1 2 1 4 1 5l35 102l-94 -31c-1 0 -3 0 -5 -1s-4 -1 -5 -1c-24 0 -47 24 -47 48c0 25 23 48 47 48c1 0 3 0 5 -1s4 -1 5 -1
l92 -30l-26 215l26 216l-92 -31c-1 0 -3 0 -5 -1h-5c-24 0 -47 23 -47 48c0 24 22 47 46 47c3 0 7 -1 11 -2l94 -31l-35 102c0 1 0 3 -1 5v6c0 24 22 47 47 47s48 -23 48 -47c0 -1 0 -3 -1 -6c-1 -2 -1 -4 -1 -5l-34 -102l92 31c4 1 8 2 12 2c24 0 46 -23 46 -47
c0 -25 -23 -48 -47 -48h-6c-2 1 -4 1 -5 1l-90 30l25 -214l-25 -215l90 29c1 0 3 0 5 1c3 1 5 1 6 1c24 0 47 -23 47 -48z" />
    <glyph glyph-name="periodcentered" unicode="&#xb7;" horiz-adv-x="292" 
d="M173 233c0 -25 -23 -48 -48 -48s-47 23 -47 48c0 27 22 49 47 49s48 -22 48 -49z" />
    <glyph glyph-name="paragraph" unicode="&#xb6;" horiz-adv-x="513" 
d="M220 600h234v-21c-84 0 -96 -15 -96 -116v-496c0 -101 12 -116 96 -116v-21h-132v726h-84v-726h-132v21c84 0 96 15 96 116v295c-43 5 -79 23 -108 55s-44 70 -44 113c0 92 78 170 170 170z" />
    <glyph glyph-name="bullet" unicode="&#x2022;" horiz-adv-x="270" 
d="M135 307c43 0 77 -34 77 -77s-34 -77 -77 -77c-41 0 -77 36 -77 77c0 43 34 77 77 77z" />
    <glyph glyph-name="quotesinglbase" unicode="&#x201a;" horiz-adv-x="292" 
d="M133 -8h-8c-25 0 -47 23 -47 48c0 27 22 48 47 48c29 0 54 -22 54 -63c0 -48 -34 -115 -91 -151l-12 12c37 39 52 67 57 106z" />
    <glyph glyph-name="quotedblbase" unicode="&#x201e;" horiz-adv-x="418" 
d="M130 -8h-8c-25 0 -47 23 -47 48c0 27 22 48 47 48c29 0 54 -22 54 -63c0 -48 -33 -115 -92 -151l-11 12c36 39 50 66 57 106zM297 -8h-9c-25 0 -46 21 -46 48s21 48 46 48c29 0 55 -22 55 -63c0 -48 -33 -115 -92 -151l-12 12c37 39 51 66 58 106z" />
    <glyph glyph-name="quotedblright" unicode="&#x201d;" horiz-adv-x="418" 
d="M130 521c-1 -1 -4 -1 -8 -1c-25 0 -47 23 -47 48c0 27 22 49 47 49c29 0 54 -23 54 -64c0 -48 -33 -114 -92 -150l-11 11c36 37 50 67 57 107zM297 521c-2 -1 -5 -1 -9 -1c-25 0 -46 23 -46 48c0 27 21 49 46 49c29 0 55 -23 55 -64c0 -48 -33 -114 -92 -150l-12 11
c37 39 51 67 58 107z" />
    <glyph glyph-name="guillemotright" unicode="&#xbb;" horiz-adv-x="667" 
d="M254 485l329 -217l-329 -218l-15 18l233 200l-233 200zM99 433l274 -165l-274 -166l-11 20l174 146l-174 146z" />
    <glyph glyph-name="ellipsis" unicode="&#x2026;" horiz-adv-x="896" 
d="M194 40c0 -27 -21 -48 -48 -48c-25 0 -47 23 -47 48c0 27 22 48 47 48c27 0 48 -21 48 -48zM486 40c0 -25 -23 -48 -48 -48s-47 23 -47 48c0 27 22 48 47 48s48 -23 48 -48zM778 40c0 -25 -22 -48 -49 -48s-46 21 -46 48s19 48 46 48s49 -23 49 -48z" />
    <glyph glyph-name="perthousand" unicode="&#x2030;" horiz-adv-x="1133" 
d="M704 128c0 -79 -67 -144 -149 -144c-81 0 -149 65 -149 144c0 78 67 143 149 143s149 -65 149 -143zM555 618l36 -18l-383 -618l-36 18zM357 473c0 -77 -68 -143 -149 -143s-150 65 -150 143c0 79 69 144 150 144s149 -65 149 -144zM638 128c0 64 -28 110 -83 110
s-82 -46 -82 -110c0 -65 27 -110 82 -110s83 46 83 110zM290 473c0 64 -29 110 -82 110c-55 0 -83 -45 -83 -110c0 -64 28 -110 83 -110c53 0 82 46 82 110zM1075 128c0 -79 -67 -144 -149 -144c-81 0 -149 65 -149 144c0 78 67 143 149 143s149 -65 149 -143zM1008 128
c0 64 -27 110 -82 110s-83 -46 -83 -110s28 -110 83 -110s82 45 82 110z" />
    <glyph glyph-name="questiondown" unicode="&#xbf;" horiz-adv-x="504" 
d="M352 390c0 -25 -20 -48 -47 -48s-48 21 -48 48s21 48 48 48s47 -21 47 -48zM457 -71c0 -32 -16 -59 -49 -82c-32 -23 -72 -34 -119 -34c-110 0 -213 65 -213 169c0 81 45 133 97 160s93 33 110 34v94h45v-164c-89 0 -185 -38 -185 -135c0 -39 15 -69 45 -92
c31 -23 67 -34 110 -34c69 0 116 34 116 67c0 16 -12 26 -43 26c-21 0 -40 18 -40 39c0 29 27 45 51 45c37 0 75 -38 75 -93z" />
    <glyph glyph-name="grave" unicode="`" horiz-adv-x="404" 
d="M93 577l93 -88l-5 -6l-138 58c-11 5 -23 17 -23 30s11 29 28 29c16 0 26 -7 45 -23z" />
    <glyph glyph-name="acute" unicode="&#xb4;" horiz-adv-x="227" 
d="M173 643c0 -13 -12 -25 -23 -30l-137 -59l-5 7l93 87l1 1c20 17 28 23 43 23c17 0 28 -16 28 -29z" />
    <glyph glyph-name="circumflex" unicode="&#x2c6;" horiz-adv-x="342" 
d="M153 663l120 -130l-13 -11l-107 76l-106 -76l-13 11z" />
    <glyph glyph-name="tilde" unicode="&#x2dc;" horiz-adv-x="300" 
d="M212 603c21 0 36 16 43 48h16c0 -61 -28 -99 -69 -99c-16 0 -35 10 -67 29c-27 17 -44 26 -56 26c-17 0 -35 -21 -42 -46h-15c0 56 28 97 64 97c19 0 35 -9 66 -29c28 -17 45 -26 60 -26z" />
    <glyph glyph-name="macron" unicode="&#xaf;" horiz-adv-x="258" 
d="M203 644v-23h-181v23h181z" />
    <glyph glyph-name="dieresis" unicode="&#xa8;" horiz-adv-x="310" 
d="M71 662c21 0 39 -18 39 -39c0 -23 -18 -40 -39 -40s-39 17 -39 40c0 21 18 39 39 39zM237 662c21 0 39 -18 39 -39s-18 -40 -39 -40s-39 17 -39 40c0 21 18 39 39 39z" />
    <glyph glyph-name="cedilla" unicode="&#xb8;" horiz-adv-x="218" 
d="M199 -126c0 -70 -107 -97 -146 -102v27c23 8 37 12 54 24c17 11 31 28 31 51c0 24 -27 39 -63 39c-13 0 -25 -2 -38 -6v14l108 107h45l-75 -76c41 -1 84 -29 84 -78z" />
    <glyph glyph-name="emdash" unicode="&#x2014;" horiz-adv-x="667" 
d="M667 227v-44h-668v44h668z" />
    <glyph glyph-name="AE" unicode="&#xc6;" horiz-adv-x="758" 
d="M358 286v261l-135 -261h135zM358 249h-154l-78 -152c-9 -19 -14 -33 -14 -43c0 -24 23 -33 76 -33v-21h-234v21c37 0 65 6 82 17c20 12 35 34 54 70l254 492h325l9 -132h-21l-5 20c-8 29 -19 49 -32 59c-13 11 -41 16 -84 16h-98v-277h12c103 3 102 7 104 96h21v-229h-21
c0 48 -2 67 -15 79c-12 13 -37 17 -89 17h-12v-96c0 -101 11 -116 95 -116h36c43 0 71 5 84 16c14 11 25 31 32 60l5 20h21l-8 -133h-440v21c84 0 95 15 95 117v111z" />
    <glyph glyph-name="ordfeminine" unicode="&#xaa;" horiz-adv-x="407" 
d="M356 322l12 -19c-16 -19 -35 -29 -58 -29c-35 0 -55 18 -60 54c-41 -40 -73 -55 -109 -55c-45 0 -80 31 -80 79c0 79 81 115 188 135v1c0 73 -11 98 -59 98c-24 0 -51 -17 -51 -45c0 -19 -11 -33 -30 -33c-16 0 -30 14 -30 33c0 22 11 40 34 54c23 15 49 22 78 22
c84 0 120 -38 120 -129v-145c0 -23 7 -35 21 -35c9 0 17 5 24 14zM249 360v97c-87 -21 -120 -47 -120 -99c0 -27 17 -44 40 -44c21 0 41 10 80 46z" />
    <glyph glyph-name="Oslash" unicode="&#xd8;" horiz-adv-x="808" 
d="M563 516l-285 -458c36 -23 78 -35 126 -35c169 0 241 148 241 277c0 79 -27 161 -82 216zM247 83l286 458c-37 25 -80 37 -129 37c-167 0 -241 -148 -241 -278c0 -80 28 -164 84 -217zM179 -25l39 63c-91 57 -147 154 -147 262c0 173 152 317 333 317
c55 0 106 -12 154 -36l38 62l36 -18l-40 -63c89 -59 146 -155 146 -262c0 -173 -151 -317 -334 -317c-53 0 -103 12 -151 35l-38 -61z" />
    <glyph glyph-name="OE" unicode="&#x152;" horiz-adv-x="934" 
d="M512 600h334l8 -132h-21l-5 20c-7 29 -18 49 -31 59c-13 11 -41 16 -84 16h-149v-227h50c102 0 117 11 117 96h21v-229h-21c0 86 -15 96 -117 96h-50v-146c0 -101 12 -116 96 -116h86c43 0 71 5 84 16s24 31 32 60l5 20h21l-9 -133h-368c-34 -11 -70 -17 -107 -17
c-181 0 -333 144 -333 317s152 317 333 317c37 0 73 -6 108 -17zM404 578c-167 0 -238 -148 -238 -278c0 -129 71 -277 238 -277c28 0 55 4 81 13v528c-25 9 -52 14 -81 14z" />
    <glyph glyph-name="ordmasculine" unicode="&#xba;" horiz-adv-x="513" 
d="M429 443c0 -95 -80 -175 -177 -175c-98 0 -178 80 -178 175c0 94 80 174 178 174c97 0 177 -80 177 -174zM358 443c0 80 -37 137 -106 137s-107 -57 -107 -137s38 -138 107 -138s106 58 106 138z" />
    <glyph glyph-name="ae" unicode="&#xe6;" horiz-adv-x="624" 
d="M337 229h166c2 6 3 12 3 19c0 33 -23 62 -70 62c-53 0 -84 -29 -99 -81zM275 73c-36 -63 -79 -86 -147 -86c-51 0 -90 33 -90 84c0 83 94 122 213 142v1c0 79 -12 104 -67 104c-27 0 -57 -19 -57 -48c0 -20 -15 -35 -34 -35c-20 0 -35 15 -35 35c0 23 13 42 38 57
c26 15 56 23 89 23c61 0 102 -18 121 -54c36 35 82 54 130 54c39 0 72 -12 99 -37c27 -24 41 -53 41 -88c0 -11 -1 -22 -4 -33h-242c-1 -11 -2 -21 -2 -31c0 -83 45 -136 133 -136c32 0 82 19 110 46l17 -22c-36 -39 -96 -66 -152 -66c-71 0 -129 35 -161 90zM251 104v78
c-97 -23 -136 -51 -136 -104c0 -28 20 -46 45 -46c15 0 32 6 51 18s33 30 40 54z" />
    <glyph glyph-name="oslash" unicode="&#xf8;" horiz-adv-x="513" 
d="M343 276l-150 -242c16 -8 36 -12 59 -12c84 0 129 60 129 145c0 45 -13 82 -38 109zM160 58l151 241c-17 9 -36 13 -59 13c-85 0 -129 -60 -129 -145c0 -48 12 -84 37 -109zM108 -25l27 43c-52 33 -85 89 -85 149c0 100 92 183 202 183c27 0 54 -5 81 -16l25 42l36 -18
l-26 -42c52 -33 85 -89 85 -149c0 -100 -91 -184 -201 -184c-28 0 -55 5 -82 16l-26 -42z" />
    <glyph glyph-name="oe" unicode="&#x153;" horiz-adv-x="744" 
d="M457 229h166c2 6 3 12 3 19c0 33 -23 62 -70 62c-53 0 -84 -29 -99 -81zM408 53c-39 -44 -95 -70 -158 -70c-110 0 -202 84 -202 184s92 183 202 183c64 0 123 -27 160 -72c35 45 90 72 146 72c39 0 72 -12 99 -37c27 -24 41 -53 41 -88c0 -11 -1 -22 -4 -33h-242
c-1 -11 -2 -21 -2 -31c0 -83 45 -136 133 -136c32 0 82 19 110 46l17 -22c-36 -39 -96 -66 -152 -66c-63 0 -115 26 -148 70zM371 167c0 85 -42 145 -121 145s-121 -61 -121 -145s42 -145 121 -145s121 60 121 145z" />
    <glyph glyph-name="germandbls" unicode="&#xdf;" horiz-adv-x="525" 
d="M117 429c0 133 78 188 161 188c38 0 69 -12 94 -37c25 -24 37 -53 37 -86c0 -47 -17 -73 -49 -110c-29 -35 -45 -57 -45 -96c0 -28 20 -47 61 -70l48 -26c43 -24 69 -61 69 -100c0 -64 -52 -109 -119 -109c-25 0 -45 9 -69 22c-13 7 -21 10 -25 10c-8 0 -12 -11 -12 -32
h-21v146h21c0 -26 10 -51 29 -76c20 -24 47 -36 80 -36s56 21 56 56c0 24 -24 49 -55 65l-56 30c-45 24 -67 67 -67 108s15 68 46 111s47 71 47 115c0 47 -27 82 -71 82c-55 0 -89 -46 -89 -155v-429h-150v21c67 0 79 16 79 117v175h-79v20c30 0 51 6 62 17s17 38 17 79z
" />
    <glyph glyph-name="onesuperior" unicode="&#xb9;" horiz-adv-x="336" 
d="M253 308v-21h-171v21c25 0 40 5 47 14c7 10 10 32 10 67v110c0 64 -13 75 -69 75v21l127 26v-232c0 -35 3 -57 10 -67c7 -9 22 -14 46 -14z" />
    <glyph glyph-name="logicalnot" unicode="&#xac;" horiz-adv-x="570" 
d="M83 295h376v-172h-44v128h-332v44z" />
    <glyph glyph-name="mu" unicode="&#xb5;" horiz-adv-x="522" 
d="M169 -8v-41c0 -101 12 -117 79 -117v-21h-229v21c69 0 79 15 79 117v245c0 102 -10 117 -79 117v20h150v-195c0 -69 23 -107 84 -107c33 0 100 39 100 99v66c0 101 -12 117 -80 117v20h150v-187c0 -101 12 -117 80 -117v-21l-134 -25c-4 9 -12 43 -16 64
c-32 -33 -79 -64 -131 -64c-17 0 -35 3 -53 9z" />
    <glyph glyph-name="trademark" unicode="&#x2122;" horiz-adv-x="1013" 
d="M199 333v233h-50c-39 0 -64 -4 -77 -12s-22 -23 -27 -46l-5 -18h-18l6 110h400l7 -110h-19l-4 18c-6 23 -15 38 -28 46c-12 8 -37 12 -76 12h-50v-233c0 -45 4 -73 13 -86s29 -19 59 -19v-18h-202v18c30 0 49 6 58 19s13 41 13 86zM720 195l-137 318v-180
c0 -48 2 -71 13 -86c8 -13 27 -19 57 -19v-18h-175v18c30 0 49 6 58 19c9 15 12 38 12 86v144c0 48 -3 73 -12 86s-28 19 -58 19v18h133l131 -304l131 304h121v-18c-30 0 -49 -6 -58 -19s-13 -41 -13 -86v-144c0 -45 4 -73 13 -86s28 -19 58 -19v-18h-201v18
c30 0 49 6 58 19c9 15 12 38 12 86v167l-131 -305h-12z" />
    <glyph glyph-name="Eth" unicode="&#xd0;" horiz-adv-x="713" 
d="M208 563v-239h100v-45h-100v-126c0 -101 12 -116 96 -116h5c193 0 242 137 242 263c0 127 -49 263 -242 263h-101zM133 138v141h-116v45h116v139c0 102 -11 116 -95 116v21h271c229 0 334 -132 334 -300s-105 -300 -334 -300h-271v21c84 0 95 15 95 117z" />
    <glyph glyph-name="onehalf" unicode="&#xbd;" horiz-adv-x="853" 
d="M600 618l36 -18l-383 -618l-36 18zM622 48h159l-9 -48h-234v23l133 118c27 21 43 47 43 82c0 48 -26 70 -71 70c-31 0 -59 -25 -59 -58c0 -15 5 -31 16 -47l-27 -25c-28 19 -42 44 -42 73c0 51 46 94 117 94c68 0 123 -39 123 -99c0 -41 -24 -71 -60 -103zM270 308v-21
h-172v21c25 0 41 5 48 14c7 10 10 32 10 67v110c0 64 -13 75 -69 75v21l126 26v-232c0 -35 3 -57 10 -67c7 -9 23 -14 47 -14z" />
    <glyph glyph-name="plusminus" unicode="&#xb1;" horiz-adv-x="458" 
d="M50 43h358v-44h-358v44zM251 408v-140h157v-44h-157v-141h-44v141h-157v44h157v140h44z" />
    <glyph glyph-name="Thorn" unicode="&#xde;" horiz-adv-x="513" 
d="M384 167c0 84 -40 143 -113 143c-45 0 -82 -31 -102 -78v-129c20 -49 57 -80 102 -80c73 0 113 60 113 144zM98 -113v567c0 102 -10 117 -79 117v21l150 25v-327c31 37 72 60 123 60c94 0 173 -83 173 -183s-79 -184 -173 -184c-49 0 -92 23 -123 60v-156
c0 -101 12 -116 79 -116v-21h-229v21c69 0 79 14 79 116z" />
    <glyph glyph-name="onequarter" unicode="&#xbc;" horiz-adv-x="853" 
d="M600 618l36 -18l-383 -618l-36 18zM758 194h21l-6 -101h-71c0 -60 9 -71 56 -71v-22h-171v22c48 0 57 11 57 71h-139v17l173 229h24v-213c28 1 41 12 52 52zM555 126h89v118zM270 308v-21h-172v21c25 0 41 5 48 14c7 10 10 32 10 67v110c0 64 -13 75 -69 75v21l126 26
v-232c0 -35 3 -57 10 -67c7 -9 23 -14 47 -14z" />
    <glyph glyph-name="divide" unicode="&#xf7;" horiz-adv-x="458" 
d="M375 243v-44h-292v44h292zM277 84c0 -25 -22 -48 -49 -48c-25 0 -46 21 -46 48s21 49 46 49s49 -24 49 -49zM277 358c0 -25 -24 -48 -49 -48s-46 23 -46 48c0 27 21 49 46 49s49 -24 49 -49z" />
    <glyph glyph-name="brokenbar" unicode="&#xa6;" horiz-adv-x="211" 
d="M83 708h45v-300h-45v300zM83 300h45v-300h-45v300z" />
    <glyph glyph-name="degree" unicode="&#xb0;" horiz-adv-x="400" 
d="M199 601c84 0 150 -68 150 -150s-68 -150 -150 -150s-150 68 -150 150s69 150 150 150zM200 553c-56 0 -102 -46 -102 -102s46 -102 102 -102s102 46 102 102s-46 102 -102 102z" />
    <glyph glyph-name="thorn" unicode="&#xfe;" horiz-adv-x="540" 
d="M213 174h88c83 0 127 55 127 132s-44 132 -127 132h-88v-264zM133 138v337c0 91 -13 104 -95 104v21h270v-21c-82 0 -95 -13 -95 -104h89c66 0 118 -16 157 -49c39 -32 58 -72 58 -120s-19 -88 -58 -120s-91 -48 -157 -48h-89c0 -102 11 -117 95 -117v-21h-270v21
c84 0 95 15 95 117z" />
    <glyph glyph-name="threequarters" unicode="&#xbe;" horiz-adv-x="853" 
d="M600 618l36 -18l-383 -618l-36 18zM750 194h21l-6 -101h-72c0 -60 10 -71 57 -71v-22h-172v22c49 0 58 11 58 71h-139v17l172 229h24v-213c29 1 42 12 53 52zM547 126h89v118zM306 378c0 -29 -12 -55 -37 -76c-24 -21 -54 -32 -91 -32c-32 0 -58 8 -79 23
c-20 15 -30 30 -30 45c0 13 7 19 20 19c6 0 13 -6 21 -18c16 -24 31 -39 68 -39c45 0 70 35 70 78c0 36 -22 66 -57 73c-3 -3 -9 -11 -16 -23c-6 -11 -14 -16 -24 -16c-12 0 -18 6 -18 18c0 6 3 12 9 18l99 104h-87c-33 0 -57 -10 -62 -38l-5 -17h-23l19 103h215v-23
l-79 -94c51 -17 87 -60 87 -105z" />
    <glyph glyph-name="twosuperior" unicode="&#xb2;" horiz-adv-x="336" 
d="M130 335h159l-9 -48h-233v22l132 119c33 29 44 50 44 87c0 39 -26 64 -69 64c-32 0 -62 -24 -62 -59c0 -15 5 -30 16 -46l-26 -25c-28 19 -42 44 -42 74c0 51 47 94 116 94c67 0 123 -40 123 -99c0 -43 -24 -73 -60 -104z" />
    <glyph glyph-name="registered" unicode="&#xae;" horiz-adv-x="683" 
d="M342 617c174 0 316 -142 316 -317c0 -174 -142 -317 -316 -317s-317 143 -317 317s143 317 317 317zM428 383c0 45 -27 79 -75 79h-59v-157h59c48 0 75 33 75 78zM550 105h-100l-125 168h-31v-45c0 -45 4 -73 13 -86s28 -19 58 -19v-18h-202v18c30 0 49 6 58 19
s14 41 14 86v144c0 45 -5 73 -14 86s-28 19 -58 19v18h195c81 0 135 -47 135 -112c0 -56 -42 -100 -109 -109l57 -66c40 -48 87 -85 124 -85c40 51 62 112 62 177c0 156 -129 285 -285 285c-158 0 -285 -127 -285 -285c0 -156 129 -285 285 -285c80 0 155 34 208 90z" />
    <glyph glyph-name="minus" unicode="&#x2212;" horiz-adv-x="458" 
d="M375 252v-44h-292v44h292z" />
    <glyph glyph-name="eth" unicode="&#xf0;" horiz-adv-x="525" 
d="M390 244c-12 41 -70 74 -130 74c-41 0 -73 -15 -96 -44c-22 -29 -33 -63 -33 -102c0 -41 11 -76 33 -105c23 -29 55 -44 96 -44c42 0 124 33 130 221zM326 586l81 60l28 -28c-16 -13 -73 -54 -78 -58c33 -33 59 -77 78 -130s28 -107 28 -164c0 -225 -120 -283 -203 -283
c-109 0 -202 86 -202 188s92 187 202 187c55 0 104 -24 129 -59c-3 91 -28 181 -68 234l-136 -101l-27 28l135 101c-22 18 -47 27 -75 27c-44 0 -71 -13 -104 -36c-15 -9 -25 -14 -31 -14c-7 0 -13 4 -18 13c-2 4 -3 8 -3 12c0 29 60 57 157 57c39 0 75 -11 107 -34z" />
    <glyph glyph-name="multiply" unicode="&#xd7;" horiz-adv-x="0" 
 />
    <glyph glyph-name="threesuperior" unicode="&#xb3;" horiz-adv-x="336" 
d="M289 378c0 -29 -12 -55 -37 -76c-24 -21 -54 -32 -90 -32c-65 0 -109 39 -109 68c0 13 7 19 20 19c6 0 13 -6 21 -18c16 -24 31 -39 68 -39c45 0 70 35 70 78c0 36 -23 66 -58 73c-3 -3 -9 -11 -16 -23c-6 -11 -14 -16 -24 -16c-12 0 -18 6 -18 18c0 6 3 12 9 18l99 104
h-86c-33 0 -56 -10 -63 -38l-5 -17h-22l18 103h216v-23l-79 -94c51 -17 86 -60 86 -105z" />
    <glyph glyph-name="copyright" unicode="&#xa9;" horiz-adv-x="683" 
d="M342 617c174 0 316 -142 316 -317c0 -174 -142 -317 -316 -317s-317 143 -317 317s143 317 317 317zM342 585c-158 0 -285 -127 -285 -285c0 -156 129 -285 285 -285s285 129 285 285s-129 285 -285 285zM506 262v-157h-17c-3 19 -11 39 -16 44c-28 -35 -76 -59 -119 -59
c-110 0 -203 94 -203 210c0 114 93 210 203 210c43 0 91 -24 119 -59c5 7 13 27 16 44h17v-156h-18c-17 85 -66 137 -134 137c-98 0 -136 -97 -136 -176c0 -80 38 -176 136 -176c68 0 117 53 134 138h18z" />
    <glyph glyph-name="Aacute" unicode="&#xc1;" 
d="M435 763c0 -13 -12 -25 -23 -30l-137 -59l-5 7l93 87l1 1c20 17 28 23 43 23c17 0 28 -16 28 -29zM408 208h-242l-48 -111c-7 -15 -10 -27 -10 -36c0 -28 27 -40 88 -40v-21h-234v21c84 3 85 10 117 81l3 6l220 509h13l221 -509l3 -6c32 -71 33 -78 116 -81v-21h-277v21
c61 0 88 12 88 40c0 9 -3 21 -10 36zM182 245h209l-105 241z" />
    <glyph glyph-name="Acircumflex" unicode="&#xc2;" 
d="M313 816l120 -130l-13 -11l-107 76l-106 -76l-13 11zM408 208h-242l-48 -111c-7 -15 -10 -27 -10 -36c0 -28 27 -40 88 -40v-21h-234v21c84 3 85 10 117 81l3 6l220 509h13l221 -509l3 -6c32 -71 33 -78 116 -81v-21h-277v21c61 0 88 12 88 40c0 9 -3 21 -10 36zM182 245
h209l-105 241z" />
    <glyph glyph-name="Adieresis" unicode="&#xc4;" 
d="M230 753c21 0 39 -18 39 -39c0 -23 -18 -40 -39 -40s-39 17 -39 40c0 21 18 39 39 39zM396 753c21 0 39 -18 39 -39s-18 -40 -39 -40s-39 17 -39 40c0 21 18 39 39 39zM408 208h-242l-48 -111c-7 -15 -10 -27 -10 -36c0 -28 27 -40 88 -40v-21h-234v21c84 3 85 10 117 81
l3 6l220 509h13l221 -509l3 -6c32 -71 33 -78 116 -81v-21h-277v21c61 0 88 12 88 40c0 9 -3 21 -10 36zM182 245h209l-105 241z" />
    <glyph glyph-name="Agrave" unicode="&#xc0;" 
d="M249 769l93 -88l-5 -6l-138 58c-11 5 -23 17 -23 30s11 29 28 29c16 0 26 -7 45 -23zM408 208h-242l-48 -111c-7 -15 -10 -27 -10 -36c0 -28 27 -40 88 -40v-21h-234v21c84 3 85 10 117 81l3 6l220 509h13l221 -509l3 -6c32 -71 33 -78 116 -81v-21h-277v21
c61 0 88 12 88 40c0 9 -3 21 -10 36zM182 245h209l-105 241z" />
    <glyph glyph-name="Aring" unicode="&#xc5;" 
d="M307 840c47 0 83 -37 83 -82c0 -47 -36 -83 -83 -83c-45 0 -82 36 -82 83c0 45 37 82 82 82zM307 804c-25 0 -46 -21 -46 -46s21 -46 46 -46s46 21 46 46s-21 46 -46 46zM408 208h-242l-48 -111c-7 -15 -10 -27 -10 -36c0 -28 27 -40 88 -40v-21h-234v21
c84 3 85 10 117 81l3 6l220 509h13l221 -509l3 -6c32 -71 33 -78 116 -81v-21h-277v21c61 0 88 12 88 40c0 9 -3 21 -10 36zM182 245h209l-105 241z" />
    <glyph glyph-name="Atilde" unicode="&#xc3;" 
d="M370 726c21 0 36 16 43 48h16c0 -61 -28 -99 -69 -99c-16 0 -35 10 -67 29c-27 17 -44 26 -56 26c-17 0 -35 -21 -42 -46h-15c0 56 28 97 64 97c19 0 35 -9 66 -29c28 -17 45 -26 60 -26zM408 208h-242l-48 -111c-7 -15 -10 -27 -10 -36c0 -28 27 -40 88 -40v-21h-234v21
c84 3 85 10 117 81l3 6l220 509h13l221 -509l3 -6c32 -71 33 -78 116 -81v-21h-277v21c61 0 88 12 88 40c0 9 -3 21 -10 36zM182 245h209l-105 241z" />
    <glyph glyph-name="Ccedilla" unicode="&#xc7;" horiz-adv-x="692" 
d="M253 -93l80 80c-146 22 -262 156 -262 313c0 173 140 317 307 317c69 0 134 -30 186 -85c15 11 30 34 34 57h20v-220h-20c-28 131 -107 209 -216 209c-156 0 -218 -148 -218 -278c0 -129 63 -277 218 -277c109 0 188 79 216 208h20v-220h-20c-5 23 -21 48 -34 57
c-52 -55 -117 -85 -186 -85h-3l-43 -44c43 -3 84 -29 84 -78c0 -71 -107 -98 -147 -103v28c31 9 86 28 86 75c0 23 -26 38 -62 38c-13 0 -27 -2 -40 -6v14z" />
    <glyph glyph-name="Eacute" unicode="&#xc9;" horiz-adv-x="583" 
d="M392 764c0 -13 -12 -25 -23 -30l-137 -59l-5 7l93 87l1 1c20 17 28 23 43 23c17 0 28 -16 28 -29zM528 0h-490v21c84 0 95 15 95 117v325c0 102 -11 116 -95 116v21h456l9 -132h-21l-5 20c-8 29 -19 49 -32 59c-13 11 -41 16 -84 16h-148v-227h50c102 0 116 11 116 96h21
v-229h-21c0 85 -14 96 -116 96h-50v-146c0 -101 11 -116 95 -116h86c43 0 71 5 84 16c14 11 25 31 32 60l5 20h21z" />
    <glyph glyph-name="Ecircumflex" unicode="&#xca;" horiz-adv-x="583" 
d="M298 816l120 -130l-13 -11l-107 76l-106 -76l-13 11zM528 0h-490v21c84 0 95 15 95 117v325c0 102 -11 116 -95 116v21h456l9 -132h-21l-5 20c-8 29 -19 49 -32 59c-13 11 -41 16 -84 16h-148v-227h50c102 0 116 11 116 96h21v-229h-21c0 85 -14 96 -116 96h-50v-146
c0 -101 11 -116 95 -116h86c43 0 71 5 84 16c14 11 25 31 32 60l5 20h21z" />
    <glyph glyph-name="Edieresis" unicode="&#xcb;" horiz-adv-x="583" 
d="M214 753c21 0 39 -18 39 -39c0 -23 -18 -40 -39 -40s-39 17 -39 40c0 21 18 39 39 39zM380 753c21 0 39 -18 39 -39s-18 -40 -39 -40s-39 17 -39 40c0 21 18 39 39 39zM528 0h-490v21c84 0 95 15 95 117v325c0 102 -11 116 -95 116v21h456l9 -132h-21l-5 20
c-8 29 -19 49 -32 59c-13 11 -41 16 -84 16h-148v-227h50c102 0 116 11 116 96h21v-229h-21c0 85 -14 96 -116 96h-50v-146c0 -101 11 -116 95 -116h86c43 0 71 5 84 16c14 11 25 31 32 60l5 20h21z" />
    <glyph glyph-name="Egrave" unicode="&#xc8;" horiz-adv-x="583" 
d="M237 769l93 -88l-5 -6l-138 58c-11 5 -23 17 -23 30s11 29 28 29c16 0 26 -7 45 -23zM528 0h-490v21c84 0 95 15 95 117v325c0 102 -11 116 -95 116v21h456l9 -132h-21l-5 20c-8 29 -19 49 -32 59c-13 11 -41 16 -84 16h-148v-227h50c102 0 116 11 116 96h21v-229h-21
c0 85 -14 96 -116 96h-50v-146c0 -101 11 -116 95 -116h86c43 0 71 5 84 16c14 11 25 31 32 60l5 20h21z" />
    <glyph glyph-name="Iacute" unicode="&#xcd;" horiz-adv-x="346" 
d="M283 763c0 -13 -12 -25 -23 -30l-137 -59l-5 7l93 87l1 1c20 17 28 23 43 23c17 0 28 -16 28 -29zM308 21v-21h-270v21c84 0 95 15 95 117v325c0 102 -11 116 -95 116v21h270v-21c-84 0 -95 -14 -95 -116v-325c0 -102 11 -117 95 -117z" />
    <glyph glyph-name="Icircumflex" unicode="&#xce;" horiz-adv-x="346" 
d="M170 816l120 -130l-13 -11l-107 76l-106 -76l-13 11zM308 21v-21h-270v21c84 0 95 15 95 117v325c0 102 -11 116 -95 116v21h270v-21c-84 0 -95 -14 -95 -116v-325c0 -102 11 -117 95 -117z" />
    <glyph glyph-name="Idieresis" unicode="&#xcf;" horiz-adv-x="346" 
d="M87 753c21 0 39 -18 39 -39c0 -23 -18 -40 -39 -40s-39 17 -39 40c0 21 18 39 39 39zM253 753c21 0 39 -18 39 -39s-18 -40 -39 -40s-39 17 -39 40c0 21 18 39 39 39zM308 21v-21h-270v21c84 0 95 15 95 117v325c0 102 -11 116 -95 116v21h270v-21
c-84 0 -95 -14 -95 -116v-325c0 -102 11 -117 95 -117z" />
    <glyph glyph-name="Igrave" unicode="&#xcc;" horiz-adv-x="346" 
d="M130 769l93 -88l-5 -6l-138 58c-11 5 -23 17 -23 30s11 29 28 29c16 0 26 -7 45 -23zM308 21v-21h-270v21c84 0 95 15 95 117v325c0 102 -11 116 -95 116v21h270v-21c-84 0 -95 -14 -95 -116v-325c0 -102 11 -117 95 -117z" />
    <glyph glyph-name="Ntilde" unicode="&#xd1;" horiz-adv-x="725" 
d="M424 726c21 0 36 16 43 48h16c0 -61 -28 -99 -69 -99c-16 0 -35 10 -67 29c-27 17 -44 26 -56 26c-17 0 -35 -21 -42 -46h-15c0 56 28 97 64 97c19 0 35 -9 66 -29c28 -17 45 -26 60 -26zM179 600l384 -476v339c0 102 -11 116 -95 116v21h228v-21c-84 0 -96 -15 -96 -116
v-480h-23l-407 503v-348c0 -101 12 -117 96 -117v-21h-228v21c84 0 95 15 95 117v325c0 102 -11 116 -95 116v21h141z" />
    <glyph glyph-name="Oacute" unicode="&#xd3;" horiz-adv-x="808" 
d="M501 763c0 -13 -12 -25 -23 -30l-137 -59l-5 7l93 87l1 1c20 17 28 23 43 23c17 0 28 -16 28 -29zM738 300c0 -173 -151 -317 -334 -317c-181 0 -333 144 -333 317s152 317 333 317c183 0 334 -144 334 -317zM404 578c-167 0 -238 -148 -238 -278
c0 -129 71 -277 238 -277c168 0 239 148 239 277c0 130 -71 278 -239 278z" />
    <glyph glyph-name="Ocircumflex" unicode="&#xd4;" horiz-adv-x="808" 
d="M408 816l120 -130l-13 -11l-107 76l-106 -76l-13 11zM738 300c0 -173 -151 -317 -334 -317c-181 0 -333 144 -333 317s152 317 333 317c183 0 334 -144 334 -317zM404 578c-167 0 -238 -148 -238 -278c0 -129 71 -277 238 -277c168 0 239 148 239 277
c0 130 -71 278 -239 278z" />
    <glyph glyph-name="Odieresis" unicode="&#xd6;" horiz-adv-x="808" 
d="M327 753c21 0 39 -18 39 -39c0 -23 -18 -40 -39 -40s-39 17 -39 40c0 21 18 39 39 39zM493 753c21 0 39 -18 39 -39s-18 -40 -39 -40s-39 17 -39 40c0 21 18 39 39 39zM738 300c0 -173 -151 -317 -334 -317c-181 0 -333 144 -333 317s152 317 333 317
c183 0 334 -144 334 -317zM404 578c-167 0 -238 -148 -238 -278c0 -129 71 -277 238 -277c168 0 239 148 239 277c0 130 -71 278 -239 278z" />
    <glyph glyph-name="Ograve" unicode="&#xd2;" horiz-adv-x="808" 
d="M364 769l93 -88l-5 -6l-138 58c-11 5 -23 17 -23 30s11 29 28 29c16 0 26 -7 45 -23zM738 300c0 -173 -151 -317 -334 -317c-181 0 -333 144 -333 317s152 317 333 317c183 0 334 -144 334 -317zM404 578c-167 0 -238 -148 -238 -278c0 -129 71 -277 238 -277
c168 0 239 148 239 277c0 130 -71 278 -239 278z" />
    <glyph glyph-name="Otilde" unicode="&#xd5;" horiz-adv-x="808" 
d="M473 726c21 0 36 16 43 48h16c0 -61 -28 -99 -69 -99c-16 0 -35 10 -67 29c-27 17 -44 26 -56 26c-17 0 -35 -21 -42 -46h-15c0 56 28 97 64 97c19 0 35 -9 66 -29c28 -17 45 -26 60 -26zM738 300c0 -173 -151 -317 -334 -317c-181 0 -333 144 -333 317s152 317 333 317
c183 0 334 -144 334 -317zM404 578c-167 0 -238 -148 -238 -278c0 -129 71 -277 238 -277c168 0 239 148 239 277c0 130 -71 278 -239 278z" />
    <glyph glyph-name="Scaron" unicode="&#x160;" horiz-adv-x="498" 
d="M352 815l12 -12l-119 -129l-119 129l12 12l107 -76zM107 30c-15 -13 -25 -28 -29 -47h-20v220h20c0 -15 3 -51 26 -96c24 -44 75 -84 159 -84c72 0 125 46 125 110c0 44 -42 82 -115 121l-96 49c-63 33 -111 93 -111 165c0 42 16 77 47 106s71 43 119 43
c53 0 86 -14 122 -41c15 13 25 28 29 46h20v-220h-21c-8 86 -40 175 -153 175c-56 0 -97 -38 -97 -89c0 -25 9 -46 26 -63c18 -17 50 -37 95 -61l96 -49c72 -36 104 -92 104 -152c0 -108 -86 -180 -190 -180c-45 0 -79 13 -120 32c-17 9 -29 14 -36 15z" />
    <glyph glyph-name="Uacute" unicode="&#xda;" horiz-adv-x="716" 
d="M495 763c0 -13 -12 -25 -23 -30l-137 -59l-5 7l93 87l1 1c20 17 28 23 43 23c17 0 28 -16 28 -29zM557 218v245c0 101 -11 116 -96 116v21h234v-21c-84 0 -96 -15 -96 -116v-240c0 -75 -23 -134 -68 -177c-45 -42 -103 -63 -173 -63c-69 0 -127 21 -172 63
c-45 43 -68 102 -68 177v240c0 102 -11 116 -95 116v21h270v-21c-84 0 -95 -14 -95 -116v-245c0 -125 70 -190 175 -190c111 0 184 65 184 190z" />
    <glyph glyph-name="Ucircumflex" unicode="&#xdb;" horiz-adv-x="716" 
d="M387 816l120 -130l-13 -11l-107 76l-106 -76l-13 11zM557 218v245c0 101 -11 116 -96 116v21h234v-21c-84 0 -96 -15 -96 -116v-240c0 -75 -23 -134 -68 -177c-45 -42 -103 -63 -173 -63c-69 0 -127 21 -172 63c-45 43 -68 102 -68 177v240c0 102 -11 116 -95 116v21h270
v-21c-84 0 -95 -14 -95 -116v-245c0 -125 70 -190 175 -190c111 0 184 65 184 190z" />
    <glyph glyph-name="Udieresis" unicode="&#xdc;" horiz-adv-x="716" 
d="M291 754c21 0 39 -18 39 -39c0 -23 -18 -40 -39 -40s-39 17 -39 40c0 21 18 39 39 39zM457 754c21 0 39 -18 39 -39s-18 -40 -39 -40s-39 17 -39 40c0 21 18 39 39 39zM557 218v245c0 101 -11 116 -96 116v21h234v-21c-84 0 -96 -15 -96 -116v-240
c0 -75 -23 -134 -68 -177c-45 -42 -103 -63 -173 -63c-69 0 -127 21 -172 63c-45 43 -68 102 -68 177v240c0 102 -11 116 -95 116v21h270v-21c-84 0 -95 -14 -95 -116v-245c0 -125 70 -190 175 -190c111 0 184 65 184 190z" />
    <glyph glyph-name="Ugrave" unicode="&#xd9;" horiz-adv-x="716" 
d="M309 769l93 -88l-5 -6l-138 58c-11 5 -23 17 -23 30s11 29 28 29c16 0 26 -7 45 -23zM557 218v245c0 101 -11 116 -96 116v21h234v-21c-84 0 -96 -15 -96 -116v-240c0 -75 -23 -134 -68 -177c-45 -42 -103 -63 -173 -63c-69 0 -127 21 -172 63c-45 43 -68 102 -68 177
v240c0 102 -11 116 -95 116v21h270v-21c-84 0 -95 -14 -95 -116v-245c0 -125 70 -190 175 -190c111 0 184 65 184 190z" />
    <glyph glyph-name="Yacute" unicode="&#xdd;" horiz-adv-x="625" 
d="M464 764c0 -13 -12 -25 -23 -30l-137 -59l-5 7l93 87l1 1c20 17 28 23 43 23c17 0 28 -16 28 -29zM518 492l-165 -250v-104c0 -102 11 -117 95 -117v-21h-270v21c84 0 95 15 95 117v97l-166 257c-22 33 -43 56 -63 68c-20 13 -47 19 -82 19v21h285v-21
c-51 0 -72 -11 -72 -32c0 -11 6 -25 18 -44l144 -220l146 220c13 21 20 36 20 47c0 19 -25 29 -74 29v21h234v-21c-39 0 -67 -6 -85 -18c-17 -12 -37 -35 -60 -69z" />
    <glyph glyph-name="Ydieresis" unicode="&#x178;" horiz-adv-x="625" 
d="M245 753c21 0 39 -18 39 -39c0 -23 -18 -40 -39 -40s-39 17 -39 40c0 21 18 39 39 39zM411 753c21 0 39 -18 39 -39s-18 -40 -39 -40s-39 17 -39 40c0 21 18 39 39 39zM518 492l-165 -250v-104c0 -102 11 -117 95 -117v-21h-270v21c84 0 95 15 95 117v97l-166 257
c-22 33 -43 56 -63 68c-20 13 -47 19 -82 19v21h285v-21c-51 0 -72 -11 -72 -32c0 -11 6 -25 18 -44l144 -220l146 220c13 21 20 36 20 47c0 19 -25 29 -74 29v21h234v-21c-39 0 -67 -6 -85 -18c-17 -12 -37 -35 -60 -69z" />
    <glyph glyph-name="aacute" unicode="&#xe1;" horiz-adv-x="403" 
d="M307 497c0 -13 -12 -25 -23 -30l-137 -59l-5 7l93 87l1 1c20 17 28 23 43 23c17 0 28 -16 28 -29zM373 39l14 -19c-19 -21 -41 -31 -66 -31c-40 0 -63 19 -68 58c-48 -43 -84 -60 -125 -60c-51 0 -90 33 -90 84c0 83 94 122 213 142c0 79 -12 105 -67 105
c-27 0 -57 -19 -57 -48c0 -20 -15 -35 -34 -35c-20 0 -35 15 -35 35c0 23 13 42 38 57c26 15 56 23 89 23c97 0 137 -40 137 -136v-151c0 -26 8 -39 23 -39c9 0 20 7 28 15zM251 80v102c-92 -21 -138 -54 -138 -99c0 -31 20 -51 47 -51c24 0 48 11 91 48z" />
    <glyph glyph-name="acircumflex" unicode="&#xe2;" horiz-adv-x="403" 
d="M193 550l120 -130l-13 -11l-107 76l-106 -76l-13 11zM373 39l14 -19c-19 -21 -41 -31 -66 -31c-40 0 -63 19 -68 58c-48 -43 -84 -60 -125 -60c-51 0 -90 33 -90 84c0 83 94 122 213 142c0 79 -12 105 -67 105c-27 0 -57 -19 -57 -48c0 -20 -15 -35 -34 -35
c-20 0 -35 15 -35 35c0 23 13 42 38 57c26 15 56 23 89 23c97 0 137 -40 137 -136v-151c0 -26 8 -39 23 -39c9 0 20 7 28 15zM251 80v102c-92 -21 -138 -54 -138 -99c0 -31 20 -51 47 -51c24 0 48 11 91 48z" />
    <glyph glyph-name="adieresis" unicode="&#xe4;" horiz-adv-x="403" 
d="M112 487c21 0 39 -18 39 -39c0 -23 -18 -40 -39 -40s-39 17 -39 40c0 21 18 39 39 39zM278 487c21 0 39 -18 39 -39s-18 -40 -39 -40s-39 17 -39 40c0 21 18 39 39 39zM373 39l14 -19c-19 -21 -41 -31 -66 -31c-40 0 -63 19 -68 58c-48 -43 -84 -60 -125 -60
c-51 0 -90 33 -90 84c0 83 94 122 213 142c0 79 -12 105 -67 105c-27 0 -57 -19 -57 -48c0 -20 -15 -35 -34 -35c-20 0 -35 15 -35 35c0 23 13 42 38 57c26 15 56 23 89 23c97 0 137 -40 137 -136v-151c0 -26 8 -39 23 -39c9 0 20 7 28 15zM251 80v102
c-92 -21 -138 -54 -138 -99c0 -31 20 -51 47 -51c24 0 48 11 91 48z" />
    <glyph glyph-name="agrave" unicode="&#xe0;" horiz-adv-x="403" 
d="M150 503l93 -88l-5 -6l-138 58c-11 5 -23 17 -23 30s11 29 28 29c16 0 26 -7 45 -23zM373 39l14 -19c-19 -21 -41 -31 -66 -31c-40 0 -63 19 -68 58c-48 -43 -84 -60 -125 -60c-51 0 -90 33 -90 84c0 83 94 122 213 142c0 79 -12 105 -67 105c-27 0 -57 -19 -57 -48
c0 -20 -15 -35 -34 -35c-20 0 -35 15 -35 35c0 23 13 42 38 57c26 15 56 23 89 23c97 0 137 -40 137 -136v-151c0 -26 8 -39 23 -39c9 0 20 7 28 15zM251 80v102c-92 -21 -138 -54 -138 -99c0 -31 20 -51 47 -51c24 0 48 11 91 48z" />
    <glyph glyph-name="aring" unicode="&#xe5;" horiz-adv-x="403" 
d="M190 572c47 0 83 -37 83 -82c0 -47 -36 -83 -83 -83c-45 0 -82 36 -82 83c0 45 37 82 82 82zM190 536c-25 0 -46 -21 -46 -46s21 -46 46 -46s46 21 46 46s-21 46 -46 46zM373 39l14 -19c-19 -21 -41 -31 -66 -31c-40 0 -63 19 -68 58c-48 -43 -84 -60 -125 -60
c-51 0 -90 33 -90 84c0 83 94 122 213 142c0 79 -12 105 -67 105c-27 0 -57 -19 -57 -48c0 -20 -15 -35 -34 -35c-20 0 -35 15 -35 35c0 23 13 42 38 57c26 15 56 23 89 23c97 0 137 -40 137 -136v-151c0 -26 8 -39 23 -39c9 0 20 7 28 15zM251 80v102
c-92 -21 -138 -54 -138 -99c0 -31 20 -51 47 -51c24 0 48 11 91 48z" />
    <glyph glyph-name="atilde" unicode="&#xe3;" horiz-adv-x="403" 
d="M257 460c21 0 36 16 43 48h16c0 -61 -28 -99 -69 -99c-16 0 -35 10 -67 29c-27 17 -44 26 -56 26c-17 0 -35 -21 -42 -46h-15c0 56 28 97 64 97c19 0 35 -9 66 -29c28 -17 45 -26 60 -26zM373 39l14 -19c-19 -21 -41 -31 -66 -31c-40 0 -63 19 -68 58
c-48 -43 -84 -60 -125 -60c-51 0 -90 33 -90 84c0 83 94 122 213 142c0 79 -12 105 -67 105c-27 0 -57 -19 -57 -48c0 -20 -15 -35 -34 -35c-20 0 -35 15 -35 35c0 23 13 42 38 57c26 15 56 23 89 23c97 0 137 -40 137 -136v-151c0 -26 8 -39 23 -39c9 0 20 7 28 15zM251 80
v102c-92 -21 -138 -54 -138 -99c0 -31 20 -51 47 -51c24 0 48 11 91 48z" />
    <glyph glyph-name="ccedilla" unicode="&#xe7;" horiz-adv-x="393" 
d="M112 -93l79 79c-89 13 -143 81 -143 172c0 115 95 192 177 192c79 0 119 -32 119 -72c0 -21 -13 -43 -44 -43c-21 0 -39 17 -39 40c0 31 -16 43 -36 43c-27 0 -49 -15 -68 -46c-19 -30 -28 -68 -28 -114c0 -83 41 -133 121 -133c35 0 75 17 107 46l17 -22
c-36 -39 -85 -63 -140 -66l-44 -44c43 -3 84 -29 84 -78c0 -70 -107 -98 -146 -103v28c30 9 85 28 85 75c0 24 -26 38 -61 38c-13 0 -27 -2 -40 -6v14z" />
    <glyph glyph-name="eacute" unicode="&#xe9;" horiz-adv-x="422" 
d="M343 497c0 -13 -12 -25 -23 -30l-137 -59l-5 7l93 87l1 1c20 17 28 23 43 23c17 0 28 -16 28 -29zM134 229h166c2 6 3 12 3 19c0 33 -24 62 -75 62c-43 0 -79 -32 -94 -81zM369 192h-241c-1 -11 -2 -21 -2 -32c0 -81 44 -135 132 -135c33 0 82 19 110 46l18 -22
c-36 -39 -97 -66 -153 -66c-109 0 -185 83 -185 184c0 105 92 183 185 183c39 0 72 -12 99 -36c28 -24 42 -53 42 -88c0 -11 -2 -23 -5 -34z" />
    <glyph glyph-name="ecircumflex" unicode="&#xea;" horiz-adv-x="422" 
d="M228 550l120 -130l-13 -11l-107 76l-106 -76l-13 11zM134 229h166c2 6 3 12 3 19c0 33 -24 62 -75 62c-43 0 -79 -32 -94 -81zM369 192h-241c-1 -11 -2 -21 -2 -32c0 -81 44 -135 132 -135c33 0 82 19 110 46l18 -22c-36 -39 -97 -66 -153 -66c-109 0 -185 83 -185 184
c0 105 92 183 185 183c39 0 72 -12 99 -36c28 -24 42 -53 42 -88c0 -11 -2 -23 -5 -34z" />
    <glyph glyph-name="edieresis" unicode="&#xeb;" horiz-adv-x="422" 
d="M147 487c21 0 39 -18 39 -39c0 -23 -18 -40 -39 -40s-39 17 -39 40c0 21 18 39 39 39zM313 487c21 0 39 -18 39 -39s-18 -40 -39 -40s-39 17 -39 40c0 21 18 39 39 39zM134 229h166c2 6 3 12 3 19c0 33 -24 62 -75 62c-43 0 -79 -32 -94 -81zM369 192h-241
c-1 -11 -2 -21 -2 -32c0 -81 44 -135 132 -135c33 0 82 19 110 46l18 -22c-36 -39 -97 -66 -153 -66c-109 0 -185 83 -185 184c0 105 92 183 185 183c39 0 72 -12 99 -36c28 -24 42 -53 42 -88c0 -11 -2 -23 -5 -34z" />
    <glyph glyph-name="egrave" unicode="&#xe8;" horiz-adv-x="422" 
d="M183 503l93 -88l-5 -6l-138 58c-11 5 -23 17 -23 30s11 29 28 29c16 0 26 -7 45 -23zM134 229h166c2 6 3 12 3 19c0 33 -24 62 -75 62c-43 0 -79 -32 -94 -81zM369 192h-241c-1 -11 -2 -21 -2 -32c0 -81 44 -135 132 -135c33 0 82 19 110 46l18 -22
c-36 -39 -97 -66 -153 -66c-109 0 -185 83 -185 184c0 105 92 183 185 183c39 0 72 -12 99 -36c28 -24 42 -53 42 -88c0 -11 -2 -23 -5 -34z" />
    <glyph glyph-name="iacute" unicode="&#xed;" horiz-adv-x="286" 
d="M253 497c0 -13 -12 -25 -23 -30l-137 -59l-5 7l93 87l1 1c20 17 28 23 43 23c17 0 28 -16 28 -29zM267 21v-21h-229v21c67 0 79 16 79 117v50c0 101 -12 116 -79 116v21l150 25v-212c0 -102 11 -117 79 -117z" />
    <glyph glyph-name="icircumflex" unicode="&#xee;" horiz-adv-x="286" 
d="M144 549l120 -130l-13 -11l-107 76l-106 -76l-13 11zM267 21v-21h-229v21c67 0 79 16 79 117v50c0 101 -12 116 -79 116v21l150 25v-212c0 -102 11 -117 79 -117z" />
    <glyph glyph-name="idieresis" unicode="&#xef;" horiz-adv-x="286" 
d="M59 487c21 0 39 -18 39 -39c0 -23 -18 -40 -39 -40s-39 17 -39 40c0 21 18 39 39 39zM225 487c21 0 39 -18 39 -39s-18 -40 -39 -40s-39 17 -39 40c0 21 18 39 39 39zM267 21v-21h-229v21c67 0 79 16 79 117v50c0 101 -12 116 -79 116v21l150 25v-212
c0 -102 11 -117 79 -117z" />
    <glyph glyph-name="igrave" unicode="&#xec;" horiz-adv-x="286" 
d="M89 503l93 -88l-5 -6l-138 58c-11 5 -23 17 -23 30s11 29 28 29c16 0 26 -7 45 -23zM267 21v-21h-229v21c67 0 79 16 79 117v50c0 101 -12 116 -79 116v21l150 25v-212c0 -102 11 -117 79 -117z" />
    <glyph glyph-name="ntilde" unicode="&#xf1;" horiz-adv-x="555" 
d="M344 460c21 0 36 16 43 48h16c0 -61 -28 -99 -69 -99c-16 0 -35 10 -67 29c-27 17 -44 26 -56 26c-17 0 -35 -21 -42 -46h-15c0 56 28 97 64 97c19 0 35 -9 66 -29c28 -17 45 -26 60 -26zM188 278c32 40 79 72 139 72c87 0 130 -60 130 -149v-63c0 -102 11 -117 79 -117
v-21h-229v21c67 0 79 16 79 117v58c0 68 -26 107 -83 107c-28 0 -54 -10 -79 -30c-24 -20 -36 -43 -36 -70v-65c2 -106 6 -115 70 -117v-21h-220v21c67 0 79 16 79 117v50c0 101 -12 116 -79 116v21l133 25c5 -9 14 -51 17 -72z" />
    <glyph glyph-name="oacute" unicode="&#xf3;" horiz-adv-x="510" 
d="M357 497c0 -13 -12 -25 -23 -30l-137 -59l-5 7l93 87l1 1c20 17 28 23 43 23c17 0 28 -16 28 -29zM452 167c0 -100 -91 -184 -202 -184c-110 0 -202 84 -202 184s92 183 202 183c111 0 202 -83 202 -183zM371 167c0 85 -42 145 -121 145s-121 -61 -121 -145
s42 -145 121 -145s121 60 121 145z" />
    <glyph glyph-name="ocircumflex" unicode="&#xf4;" horiz-adv-x="510" 
d="M249 550l120 -130l-13 -11l-107 76l-106 -76l-13 11zM452 167c0 -100 -91 -184 -202 -184c-110 0 -202 84 -202 184s92 183 202 183c111 0 202 -83 202 -183zM371 167c0 85 -42 145 -121 145s-121 -61 -121 -145s42 -145 121 -145s121 60 121 145z" />
    <glyph glyph-name="odieresis" unicode="&#xf6;" horiz-adv-x="510" 
d="M165 487c21 0 39 -18 39 -39c0 -23 -18 -40 -39 -40s-39 17 -39 40c0 21 18 39 39 39zM331 487c21 0 39 -18 39 -39s-18 -40 -39 -40s-39 17 -39 40c0 21 18 39 39 39zM452 167c0 -100 -91 -184 -202 -184c-110 0 -202 84 -202 184s92 183 202 183
c111 0 202 -83 202 -183zM371 167c0 85 -42 145 -121 145s-121 -61 -121 -145s42 -145 121 -145s121 60 121 145z" />
    <glyph glyph-name="ograve" unicode="&#xf2;" horiz-adv-x="510" 
d="M190 503l93 -88l-5 -6l-138 58c-11 5 -23 17 -23 30s11 29 28 29c16 0 26 -7 45 -23zM452 167c0 -100 -91 -184 -202 -184c-110 0 -202 84 -202 184s92 183 202 183c111 0 202 -83 202 -183zM371 167c0 85 -42 145 -121 145s-121 -61 -121 -145s42 -145 121 -145
s121 60 121 145z" />
    <glyph glyph-name="otilde" unicode="&#xf5;" horiz-adv-x="510" 
d="M314 460c21 0 36 16 43 48h16c0 -61 -28 -99 -69 -99c-16 0 -35 10 -67 29c-27 17 -44 26 -56 26c-17 0 -35 -21 -42 -46h-15c0 56 28 97 64 97c19 0 35 -9 66 -29c28 -17 45 -26 60 -26zM452 167c0 -100 -91 -184 -202 -184c-110 0 -202 84 -202 184s92 183 202 183
c111 0 202 -83 202 -183zM371 167c0 85 -42 145 -121 145s-121 -61 -121 -145s42 -145 121 -145s121 60 121 145z" />
    <glyph glyph-name="scaron" unicode="&#x161;" horiz-adv-x="323" 
d="M274 549l12 -12l-119 -129l-119 129l12 12l107 -76zM289 92c0 -64 -52 -109 -119 -109c-25 0 -45 9 -70 22c-12 7 -20 10 -25 10c-8 0 -12 -11 -12 -32h-20v146h20c0 -26 10 -51 30 -76c20 -24 47 -36 80 -36c32 0 56 23 56 51c0 24 -19 42 -56 61l-55 30
c-45 24 -67 64 -67 100c0 52 47 91 102 91c31 0 50 -7 70 -18c7 -3 11 -5 13 -5c5 0 7 8 7 23h21v-116h-21c0 45 -32 84 -81 84c-34 0 -51 -14 -51 -43c0 -23 14 -36 61 -61l48 -26c44 -25 69 -60 69 -96z" />
    <glyph glyph-name="uacute" unicode="&#xfa;" horiz-adv-x="522" 
d="M355 496c0 -13 -12 -25 -23 -30l-137 -59l-5 7l93 87l1 1c20 17 28 23 43 23c17 0 28 -16 28 -29zM503 29v-21l-134 -25c-4 9 -12 43 -16 64c-32 -33 -79 -64 -131 -64c-87 0 -124 58 -124 150v63c0 102 -10 117 -79 117v20h150v-195c0 -68 24 -107 76 -107
c41 0 108 39 108 99v66c0 101 -12 117 -80 117v20h150v-187c0 -101 12 -117 80 -117z" />
    <glyph glyph-name="ucircumflex" unicode="&#xfb;" horiz-adv-x="522" 
d="M238 550l120 -130l-13 -11l-107 76l-106 -76l-13 11zM503 29v-21l-134 -25c-4 9 -12 43 -16 64c-32 -33 -79 -64 -131 -64c-87 0 -124 58 -124 150v63c0 102 -10 117 -79 117v20h150v-195c0 -68 24 -107 76 -107c41 0 108 39 108 99v66c0 101 -12 117 -80 117v20h150
v-187c0 -101 12 -117 80 -117z" />
    <glyph glyph-name="udieresis" unicode="&#xfc;" horiz-adv-x="522" 
d="M168 487c21 0 39 -18 39 -39c0 -23 -18 -40 -39 -40s-39 17 -39 40c0 21 18 39 39 39zM334 487c21 0 39 -18 39 -39s-18 -40 -39 -40s-39 17 -39 40c0 21 18 39 39 39zM503 29v-21l-134 -25c-4 9 -12 43 -16 64c-32 -33 -79 -64 -131 -64c-87 0 -124 58 -124 150v63
c0 102 -10 117 -79 117v20h150v-195c0 -68 24 -107 76 -107c41 0 108 39 108 99v66c0 101 -12 117 -80 117v20h150v-187c0 -101 12 -117 80 -117z" />
    <glyph glyph-name="ugrave" unicode="&#xf9;" horiz-adv-x="522" 
d="M188 502l93 -88l-5 -6l-138 58c-11 5 -23 17 -23 30s11 29 28 29c16 0 26 -7 45 -23zM503 29v-21l-134 -25c-4 9 -12 43 -16 64c-32 -33 -79 -64 -131 -64c-87 0 -124 58 -124 150v63c0 102 -10 117 -79 117v20h150v-195c0 -68 24 -107 76 -107c41 0 108 39 108 99v66
c0 101 -12 117 -80 117v20h150v-187c0 -101 12 -117 80 -117z" />
    <glyph glyph-name="yacute" unicode="&#xfd;" horiz-adv-x="373" 
d="M330 497c0 -13 -12 -25 -23 -30l-137 -59l-5 7l93 87l1 1c20 17 28 23 43 23c17 0 28 -16 28 -29zM38 -237c0 16 7 25 24 41c23 23 38 40 51 76l50 125l-115 249c-20 45 -35 59 -67 59v20h177v-20c-29 0 -44 -7 -44 -21c0 -9 4 -21 12 -38l73 -160l64 160
c7 16 10 28 10 36c0 15 -13 23 -39 23v20h140v-20c-32 0 -54 -16 -71 -59l-195 -487c-8 -21 -22 -37 -37 -37c-17 0 -33 10 -33 33z" />
    <glyph glyph-name="ydieresis" unicode="&#xff;" horiz-adv-x="373" 
d="M101 487c21 0 39 -18 39 -39c0 -23 -18 -40 -39 -40s-39 17 -39 40c0 21 18 39 39 39zM267 487c21 0 39 -18 39 -39s-18 -40 -39 -40s-39 17 -39 40c0 21 18 39 39 39zM38 -237c0 16 7 25 24 41c23 23 38 40 51 76l50 125l-115 249c-20 45 -35 59 -67 59v20h177v-20
c-29 0 -44 -7 -44 -21c0 -9 4 -21 12 -38l73 -160l64 160c7 16 10 28 10 36c0 15 -13 23 -39 23v20h140v-20c-32 0 -54 -16 -71 -59l-195 -487c-8 -21 -22 -37 -37 -37c-17 0 -33 10 -33 33z" />
    <glyph glyph-name="nbspace" unicode="&#xe000;" horiz-adv-x="233" 
 />
    </font>
</defs>
</svg>
