<?xml version="1.0" encoding="utf-8"?>
<!DOCTYPE svg PUBLIC "-//W3C//DTD SVG 1.1//EN" "http://www.w3.org/Graphics/SVG/1.1/DTD/svg11.dtd">
<svg version="1.1" id="图形" xmlns="http://www.w3.org/2000/svg" xmlns:xlink="http://www.w3.org/1999/xlink" x="0px" y="0px" width="1024px" height="1024px" viewBox="0 0 1024 1024" enable-background="new 0 0 1024 1024" xml:space="preserve">
  <path fill="#cccccc" d="M513.024-76.1152c-50.907136 0-100.3008 9.97376-146.806784 29.6448-44.910592 18.996224-85.241856 46.18752-119.872512 80.8192-34.629632 34.630656-61.819904 74.96192-80.815104 119.872512-19.668992 46.505984-29.642752 95.896576-29.642752 146.80064 0 50.907136 9.97376 100.3008 29.642752 146.806784 18.9952 44.911616 46.186496 85.24288 80.816128 119.872512s74.960896 61.820928 119.871488 80.816128c46.505984 19.668992 95.898624 29.642752 146.806784 29.642752 50.907136 0 100.299776-9.97376 146.804736-29.642752 44.911616-18.9952 85.241856-46.186496 119.871488-80.816128 34.630656-34.629632 61.820928-74.960896 80.816128-119.872512 19.670016-46.505984 29.642752-95.898624 29.642752-146.806784 0-50.904064-9.972736-100.294656-29.642752-146.80064-18.9952-44.910592-46.186496-85.241856-80.815104-119.872512-34.630656-34.630656-74.96192-61.822976-119.871488-80.8192C613.322752-66.14144 563.931136-76.1152 513.024-76.1152zM513.024 646.063872c-92.166144 0-178.814976-35.889152-243.98336-101.057536-65.168384-65.168384-101.057536-151.816192-101.057536-243.98336 0-92.162048 35.889152-178.807808 101.057536-243.97824 65.169408-65.17248 151.817216-101.06368 243.982336-101.06368 92.164096 0 178.811904 35.892224 243.981312 101.06368 65.169408 65.170432 101.05856 151.817216 101.05856 243.97824 0 92.166144-35.890176 178.814976-101.057536 243.98336C691.836928 610.17472 605.190144 646.063872 513.024 646.063872z" transform="translate(0, 812) scale(1, -1)"/>
</svg>
