<?xml version="1.0" standalone="no"?>
<!DOCTYPE svg PUBLIC "-//W3C//DTD SVG 1.1//EN" "http://www.w3.org/Graphics/SVG/1.1/DTD/svg11.dtd" >
<svg xmlns="http://www.w3.org/2000/svg">
<metadata>Generated by IcoMoon</metadata>
<defs>
<font id="icomoon" horiz-adv-x="1024">
<font-face units-per-em="1024" ascent="960" descent="-64" />
<missing-glyph horiz-adv-x="1024" />
<glyph unicode="&#x20;" horiz-adv-x="512" d="" />
<glyph unicode="&#xe604;" glyph-name="zan" d="M512 27.734l-61.867 56.107c-219.733 199.467-364.8 331.093-364.8 492.16 0 131.627 103.040 234.667 234.667 234.667 74.24 0 145.493-34.56 192-88.96 46.507 54.4 117.76 88.96 192 88.96 131.627 0 234.667-103.040 234.667-234.667 0-161.067-145.067-292.693-364.8-492.16l-61.867-56.107z" />
<glyph unicode="&#xe605;" glyph-name="zan-o" d="M704 810.667c-74.24 0-145.493-34.56-192-88.96-46.507 54.4-117.76 88.96-192 88.96-131.627 0-234.667-103.040-234.667-234.667 0-161.067 145.067-292.693 364.8-492.16l61.867-56.107 61.867 56.107c219.733 199.467 364.8 331.093 364.8 492.16 0 131.627-103.040 234.667-234.667 234.667zM516.48 146.987l-4.48-4.053-4.48 4.053c-202.88 184.107-336.853 305.707-336.853 429.013 0 85.12 64.213 149.333 149.333 149.333 65.707 0 129.707-42.453 152.107-100.693h79.573c22.613 58.24 86.613 100.693 152.32 100.693 85.12 0 149.333-64.213 149.333-149.333 0-123.307-133.973-244.907-336.853-429.013z" />
<glyph unicode="&#xe60e;" glyph-name="song-j" d="M789.333 426.667c0 75.52-43.52 140.373-106.667 171.947v-343.467c63.147 31.147 106.667 96 106.667 171.52zM213.333 554.667v-256h170.667l213.333-213.333v682.667l-213.333-213.333h-170.667z" />
<glyph unicode="&#xe60f;" glyph-name="song-no" d="M704 426.667c0 75.307-43.52 140.373-106.667 171.733v-94.293l104.747-104.747c1.28 8.96 1.92 18.133 1.92 27.307zM810.667 426.667c0-40.107-8.747-77.867-23.040-112.64l64.64-64.64c27.733 53.12 43.733 113.28 43.733 177.28 0 182.613-127.787 335.36-298.667 374.187v-88.107c123.307-36.693 213.333-150.827 213.333-286.080zM182.4 810.667l-54.4-54.4 201.6-201.6h-201.6v-256h170.667l213.333-213.333v286.933l181.547-181.547c-28.587-21.973-60.8-39.68-96.213-50.347v-88.107c58.667 13.44 112.213 40.32 157.227 77.227l87.040-86.827 54.4 54.4-713.6 713.6zM512 768l-89.173-89.173 89.173-89.173v178.347z" />
<glyph unicode="&#xe612;" glyph-name="song" d="M128 554.667v-256h170.667l213.333-213.333v682.667l-213.333-213.333h-170.667zM704 426.667c0 75.52-43.52 140.373-106.667 171.947v-343.467c63.147 31.147 106.667 96 106.667 171.52zM597.333 800.854v-87.893c123.307-36.693 213.333-151.040 213.333-286.293s-90.027-249.6-213.333-286.293v-87.893c171.093 38.827 298.667 191.573 298.667 374.187s-127.573 335.36-298.667 374.187z" />
<glyph unicode="&#xe900;" glyph-name="jiaocai" d="M927.289 897.422h-830.578c-54.044 0-96.711-45.511-96.711-96.711v-574.578c0-54.044 42.667-96.711 96.711-96.711h830.578c54.044 0 96.711 42.667 96.711 96.711v574.578c0 51.2-42.667 96.711-96.711 96.711zM557.511 214.756l-68.267-36.978c-14.222-8.533-25.6-2.844-25.6 11.378v76.8c0 14.222 11.378 19.911 25.6 11.378l68.267-36.978c14.222-5.689 14.222-17.067 0-25.6zM961.422 223.289c0-17.067-14.222-31.289-31.289-31.289h-278.756v14.222c0 76.8-62.578 139.378-139.378 139.378s-139.378-62.578-139.378-139.378v-14.222h-275.911c-17.067 0-31.289 14.222-31.289 31.289v577.422c0 17.067 14.222 31.289 31.289 31.289h830.578c17.067 0 31.289-14.222 31.289-31.289v-577.422zM193.422 64h640v-62.578h-640zM853.333 735.289l-113.778-113.778-51.2 51.2c-5.689 5.689-14.222 5.689-19.911 0s-5.689-14.222 0-19.911l62.578-62.578c2.844-2.844 5.689-5.689 11.378-5.689s8.533 0 14.222 5.689l122.311 122.311c5.689 5.689 5.689 17.067 0 22.756-8.533 5.689-17.067 5.689-25.6 0zM799.289 450.844l42.667 42.667c5.689 5.689 5.689 14.222 0 19.911s-14.222 5.689-22.756 0l-42.667-42.667-42.667 42.667c-5.689 5.689-14.222 5.689-19.911 0s-5.689-14.222 0-22.756l42.667-42.667-42.667-42.667c-5.689-5.689-5.689-14.222 0-22.756 5.689-5.689 14.222-5.689 22.756 0l42.667 42.667 42.667-42.667c5.689-5.689 14.222-5.689 22.756 0 5.689 5.689 5.689 14.222 0 22.756l-45.511 45.511zM574.578 484.978h-409.6c-8.533 0-14.222-5.689-14.222-14.222v-45.511c0-8.533 5.689-14.222 14.222-14.222h409.6c8.533 0 14.222 5.689 14.222 14.222v45.511c0 8.533-5.689 14.222-14.222 14.222zM577.422 695.467h-409.6c-8.533 0-14.222-5.689-14.222-14.222v-45.511c0-8.533 5.689-14.222 14.222-14.222h409.6c8.533 0 14.222 5.689 14.222 14.222v45.511c0 8.533-5.689 14.222-14.222 14.222z" />
<glyph unicode="&#xe901;" glyph-name="sj" d="M159.329 769.623h106.938v-112.876h-106.938v112.876zM315.163 755.351h507.526v-85.086h-507.526v85.086zM780.783 78.428l-118.383 110.695v-108.628l118.383-110.959 242.103 225.89v108.64l-242.103-225.638zM159.329 541.114h106.938v-112.876h-106.938v112.876zM315.163 526.843h507.526v-85.084h-507.526v85.084zM159.329 312.604h106.938v-112.876h-106.938v112.876zM315.163 298.334h273.466v-85.086h-273.466v85.086zM557.411 22.953c-1.227 0-2.392-0.22-3.583-0.358v0.364h-449.886c-24.038 0-30.146 6.114-30.146 30.154v789.768c0 24.045 6.107 30.16 30.146 30.16h789.813c24.033 0 30.154-6.115 30.154-30.16v-434.998l0.164 0.006c0.871-16.471 19.487-29.591 36.172-29.591 17.047 0 35.964 13.671 36.279 30.643h0.062v487.008c0 27.485-22.286 49.768-49.777 49.768h-895.928c-27.483 0-49.768-22.284-49.768-49.768v-895.897c0-27.483 22.286-49.768 49.768-49.768l502.946 0.358c1.19-0.138 2.356-0.358 3.583-0.358 17.242 0 31.225 19.094 31.225 36.336-0.006 17.241-13.983 36.335-31.224 36.335v0z" />
<glyph unicode="&#xe902;" glyph-name="daoxue" d="M990.658 383.53l-430.82-191.176c-41.246-17.719-57.662-17.719-95.738 0l-430.82 191.176c-22.864 11.974-29.039 56.345-29.039 80.568 28.758-16.222 69.2-34.293 67.695-33.373l440.030-200.249 440.030 200.249c0.767 0.171 39.986 19.694 67.694 33.373 0-24.782-7.785-70.797-29.036-80.568zM990.658 583.776l-430.82-191.175c-41.246-17.718-57.662-17.718-95.738 0l-430.82 191.175c-33.837 17.726-32.785 73.546 0 94.399l430.82 224.542c38.076 18.766 61.899 19.811 95.738 0l430.82-224.542c32.785-17.724 31.724-79.806 0-94.399zM511.971 30.222l440.029 200.255c0.767 0.175 39.986 19.695 67.694 33.374 0-24.785-7.785-70.8-29.036-80.575l-430.82-191.166c-41.246-17.729-57.662-17.729-95.738 0l-430.82 191.166c-22.864 11.978-29.039 56.346-29.039 80.575 28.758-16.228 69.2-34.295 67.695-33.374l440.032-200.255z" />
<glyph unicode="&#xe903;" glyph-name="ketang" d="M269.536 662.377c25.636-77.8 96.97-77.659 122.514 0 8.422 4.439 17.099 17.562 18.499 28.421 1.498 11.372 0.625 26.512-10.822 26.512-2.5 36.451-22.519 67.313-67.995 67.313-44.417 0-67.063-26.777-69.868-67.313-11.447 0-12.323-15.139-10.825-26.512 1.403-10.859 10.075-23.982 18.496-28.421v0zM434.196 216.162v27.058c29.754 0 53.862 24.158 53.862 53.945v1.801l209.666 209.632c5.684 5.678 5.684 14.855 0 20.497-5.64 5.678-14.812 5.678-20.456 0l-189.21-189.132v178.593c0 38.839-28.318 72.425-67.935 80.755l-28.974 5.995-60.353-120.212-60.357 120.212-28.943-5.995c-39.643-8.33-67.906-41.916-67.906-80.755v-221.391c0-29.786 24.080-53.945 53.836-53.945v-27.058h206.769zM2.696 402.625c0-82.666 67.25-149.906 149.871-149.906h1.751c-7.922 12.996-12.668 28.137-12.668 44.443v20.518c-42.23 5.462-75.076 41.242-75.076 84.942v407.484c0 47.433 38.586 86.012 85.993 86.012h715.405c47.407 0 85.999-38.578 85.999-86.012v-407.483c0-47.453-38.59-86.025-85.999-86.025h-317.122l-31.973-31.976c-1.837-11.764-6.545-22.268-12.408-31.904h361.503c82.619 0 149.871 67.24 149.871 149.906v407.483c0 82.651-67.253 149.892-149.871 149.892h-715.405c-82.62 0-149.871-67.241-149.871-149.892v-407.483zM212.578 163.563h-111.789c-54.181 0-98.094-43.915-98.094-98.048v-129.515h307.947v129.515c0.002 54.137-43.912 98.048-98.064 98.048v0zM567.91 163.563h-111.789c-54.181 0-98.099-43.916-98.099-98.050v-129.515h307.953v129.515c0 54.138-43.92 98.050-98.065 98.050v0zM923.239 163.563h-111.789c-54.181 0-98.094-43.916-98.094-98.050v-129.515h307.95v129.515c0 54.138-43.921 98.050-98.067 98.050v0z" />
<glyph unicode="&#xe904;" glyph-name="tisheng" horiz-adv-x="1026" d="M420.864 511.488l-164.864-140.288v187.392l185.344 162.816 7.168-8.192 164.864-193.536 197.632 205.824-106.496 105.472 317.44 2.048v-315.392l-107.52 105.472-313.344-326.656-3.072 7.168zM928.768 256.512q19.456 0 37.376-7.68t30.72-20.48 20.48-30.72 7.68-37.376q0-20.48-7.68-37.888t-20.48-30.208-30.72-20.48-37.376-7.68h-832.512q-20.48 0-37.888 7.68t-30.208 20.48-20.48 30.208-7.68 37.888v641.024q0 19.456 7.68 36.864t20.48 30.208 30.208 20.48 37.888 7.68q19.456 0 37.376-7.68t30.72-20.48 20.48-30.208 7.68-36.864v-481.28h4.096l-4.096-3.072v-60.416h736.256z" />
<glyph unicode="&#xe905;" glyph-name="录音" d="M323.070 492.616c-29.062 31.488-77.508 31.488-108.996 0-29.062-29.062-29.062-77.508 0-108.996 29.062-29.062 77.508-29.062 108.996 0 29.062 31.488 29.062 79.934 0 108.996v0zM439.331 717.888l-75.081-75.081c111.423-111.423 111.423-293.087 0-406.923l75.081-75.081c152.603 155.015 152.603 402.084 0 557.099v0zM594.361 888.903l-75.081-75.081c198.622-198.622 198.622-518.345 0-716.967l75.081-75.081c239.803 239.803 239.803 627.341 0 867.144v0z" />
<glyph unicode="&#xe906;" glyph-name="top" d="M519.451 703.707l-447.974-459.642 50.732-52.012 397.211 407.574 397.21-407.542 50.733 51.975z" />
<glyph unicode="&#xe907;" glyph-name="left" d="M256.293 455.451l459.642-447.974 52.012 50.732-407.574 397.211 407.542 397.21-51.975 50.733z" />
<glyph unicode="&#xe90c;" glyph-name="zyzfw" d="M85.192-40.022c-18.336 0-33.287 14.951-33.287 33.287 0 114.812 44.571 222.572 125.814 303.815 44.007 44.007 97.604 78.422 155.716 99.579-38.929 23.132-72.216 55.572-96.476 93.937-29.62 46.263-45.135 99.861-45.135 154.869 0 159.665 129.763 289.71 289.71 289.71 77.294 0 150.074-30.184 204.8-84.91s84.91-127.506 84.91-204.8c0-159.665-130.045-289.71-289.71-289.71-3.385 0-6.77 0-10.72 0.282-92.809-2.539-179.976-40.339-245.704-106.067-68.831-68.549-106.631-159.947-106.631-256.705 0-18.336-14.951-33.287-33.287-33.287zM481.252 422.612c1.41 0 2.821 0 4.513-0.282 120.454 2.257 218.623 102.4 218.623 223.136 0 122.993-100.143 223.136-223.136 223.136s-223.136-100.143-223.136-223.136c0-119.326 93.373-217.212 212.699-222.854 3.385 0 7.052 0 10.437 0zM756.857-33.534c-9.027 0-17.49 2.821-24.824 8.463-4.513 3.667-113.402 88.013-157.126 156.844-15.797 24.824-35.262 55.572-35.262 100.99 0 77.294 58.111 140.201 129.481 140.201 32.723 0 63.753-12.976 87.731-36.954 23.978 23.978 55.008 36.954 87.731 36.954 71.37 0 129.481-62.907 129.481-140.201 0-45.417-19.464-76.165-35.262-100.99-44.007-69.113-152.613-153.177-157.126-156.844-7.334-5.642-15.797-8.463-24.824-8.463zM669.126 311.749c-39.211 0-70.806-35.544-70.806-78.986 0-25.106 11.002-44.571 25.671-67.138 31.312-49.084 107.76-113.12 133.148-133.43 25.106 20.311 101.554 84.064 133.148 133.43 14.387 22.85 25.671 42.032 25.671 67.138 0 43.725-31.877 78.986-70.806 78.986-27.645 0-53.034-18.336-64.599-46.545l-4.796-10.437h-2.821c-4.513-3.949-10.155-5.924-16.079-5.924-6.206 0-12.412 2.539-16.926 6.77l-1.975-0.564-4.231 9.873c-11.566 28.491-36.954 46.828-64.599 46.828z" />
<glyph unicode="&#xe90f;" glyph-name="back" d="M694.567 884.035l-384.719-404.293c-9.169-8.444-13.679-20.047-13.419-31.601-0.26-11.554 4.25-23.157 13.419-31.601l384.719-404.293c16.925-15.587 43.282-14.501 58.868 2.425s14.5 43.283-2.425 58.87l-356.462 374.597 356.462 374.597c16.925 15.587 18.011 41.944 2.425 58.87s-41.942 18.014-58.868 2.427z" />
<glyph unicode="&#xe910;" glyph-name="bandui" d="M1024 750.2l-68.7 68.7-138.7-138.8-162 161.9-34.3-34.4-34.3-34.3 161.8-161.9-397.7-397.7-281.4 281.5-68.7-68.7 340.1-340.1 9.7-9.3 10.2 9.3 456.5 456.4 71-71 34.3 34.4 34.3 34.3-70.9 71z" />
<glyph unicode="&#xe911;" glyph-name="see" d="M512.272 900.208c-247.528 0-448.18-200.658-448.18-448.186 0-247.523 200.653-448.186 448.18-448.186s448.191 200.663 448.191 448.186c0 247.528-200.662 448.186-448.191 448.186zM512.272 53.635c-220.024 0-398.387 178.368-398.387 398.387 0 220.024 178.363 398.393 398.387 398.393 220.019 0 398.387-178.368 398.387-398.393 0-220.020-178.368-398.387-398.387-398.387zM512.272 485.223c-36.671 0-66.386-26.009-66.386-58.1 0-32.085 29.715-58.1 66.386-58.1 36.676 0 66.401 26.014 66.401 58.1 0 32.091-29.725 58.1-66.401 58.1zM512.272 601.422c-189.309 0-298.786-174.3-298.786-174.3s107.43-174.295 298.786-174.295c191.36 0 298.795 174.295 298.795 174.295s-109.476 174.3-298.795 174.3zM512.272 310.928c-138.409 0-216.125 116.194-216.125 116.194s79.19 116.199 216.125 116.199 216.12-116.199 216.12-116.199-77.706-116.194-216.12-116.194z" />
<glyph unicode="&#xe912;" glyph-name="cuo" horiz-adv-x="1025" d="M948.114 78.812l-369.122 369.21 369.21 369.122c18.457 18.457 18.457 48.425 0 66.969-18.457 18.457-48.425 18.457-66.969 0l-369.122-369.122-369.298 369.122c-18.457 18.457-48.425 18.457-66.969 0-18.457-18.457-18.457-48.425 0-66.969l369.21-369.122-369.122-369.21c-18.457-18.457-18.457-48.425 0-66.969 18.457-18.457 48.425-18.457 66.969 0l369.122 369.21 369.122-369.21c18.457-18.457 48.425-18.457 66.969 0 18.544 18.544 18.544 48.513 0 66.969v0z" />
<glyph unicode="&#xe913;" glyph-name="cuo2" d="M508.822-10.258c-57.626 0-115.076 10.805-168.466 31.885-9.075 3.602-13.524 13.842-9.922 22.881s13.877 13.594 22.881 9.922c62.923-24.858 132.061-34.18 199.68-27.118 232.377 24.435 401.549 233.331 377.15 465.708-10.063 95.656-50.776 182.519-117.76 251.233-6.78 6.991-6.638 18.185 0.353 24.964 6.956 6.744 18.15 6.674 24.964-0.318 72.563-74.434 116.665-168.572 127.541-272.207 26.447-251.692-156.778-478.067-408.505-504.514-15.925-1.589-31.921-2.436-47.916-2.436zM202.222 113.54c-4.414 0-8.828 1.66-12.253 4.943-77.542 74.787-126.446 175.069-137.71 282.306-12.818 121.962 22.599 241.593 99.787 336.896 77.153 95.303 186.827 154.836 308.754 167.654 84.427 8.969 169.49-5.72 245.795-42.231 8.792-4.237 12.5-14.76 8.298-23.552-4.202-8.828-14.76-12.535-23.552-8.298-70.409 33.721-148.939 47.139-226.869 38.983-112.569-11.864-213.804-66.842-285.025-154.801s-103.918-198.374-92.089-310.943c10.417-99.046 55.543-191.594 127.117-260.59 7.027-6.78 7.239-17.973 0.459-24.964-3.496-3.602-8.121-5.402-12.712-5.402zM317.793 236.138c-4.696 0-9.393 1.871-12.888 5.579-6.674 7.097-6.321 18.291 0.777 24.929l168.819 158.508-169.207 169.242c-6.886 6.886-6.886 18.079 0 24.964s18.079 6.886 24.964 0l170.019-170.019 181.495 170.408c7.027 6.638 18.22 6.356 24.929-0.777 6.674-7.097 6.356-18.291-0.777-24.964l-180.648-169.631 158.12-158.12c6.886-6.886 6.886-18.079 0-24.964s-18.079-6.886-24.964 0l-158.897 158.897-169.631-159.285c-3.425-3.178-7.768-4.767-12.111-4.767z" />
<glyph unicode="&#xe914;" glyph-name="light" d="M515.107 756.105c-151.36 0-274.439-123.083-274.439-274.439 0-105.339 59.879-200.703 154.126-246.718v-118.645c0-33.266 19.964-62.1 48.795-74.849v-25.504c0-28.832 23.283-52.117 52.115-52.117h39.92c28.829 0 52.117 23.284 52.117 52.117v25.5c28.828 12.751 48.789 41.584 48.789 74.852v118.645c93.695 46.015 154.127 141.378 154.127 246.718-1.108 151.359-124.19 274.443-275.548 274.443v0zM535.061 2.639h-39.918c-7.203 0-13.308 6.102-13.308 13.307v18.299h66.538v-18.299c0-7.204-6.102-13.307-13.312-13.307v0zM553.362 73.055h-76.512c-23.836 0-43.247 19.403-43.247 43.247v46.569h163.561v-46.569c-0.557-23.843-19.964-43.247-43.803-43.247v0zM515.107 355.81l-41.584 75.954h82.609l-41.026-75.954zM608.25 265.44l-11.641-4.99v-58.772h-62.098v114.211c3.328 2.221 5.548 5.545 7.763 8.869l56.551 104.234c4.989 8.316 4.434 18.849-0.553 27.166-5.542 8.871-15.526 14.419-26.612 14.419h-113.657c-11.091 0-21.068-5.541-26.611-14.419-4.991-8.316-5.547-18.294-0.554-27.166l57.108-104.786c2.214-3.322 4.434-6.65 7.759-8.871v-113.657h-62.096v58.772l-11.643 4.99c-86.487 37.141-141.93 122.527-141.93 216.222 0 129.738 105.894 235.63 235.63 235.63 129.733 0 235.632-105.894 235.632-235.63-0.553-93.695-56.551-178.528-143.042-216.222v0zM47.12 536.507h102.928v-39.75h-102.928v39.75zM254.010 725.982l-72.78 72.78 28.112 28.105 72.78-72.78-28.112-28.105zM742.348 754.086l72.78 72.78 28.106-28.105-72.779-72.78-28.107 28.105zM873.369 536.507h102.927v-39.75h-102.927v39.75zM491.831 932.237h39.75v-102.927h-39.75v102.927z" />
<glyph unicode="&#xe915;" glyph-name="dui" d="M378.627 104.8c-10.685 0-21.371 4.063-29.468 12.221l-282.067 282.006c-16.314 16.344-16.314 42.622 0 58.966 16.254 16.224 42.652 16.224 58.875 0l252.689-252.629 521.933 521.903c16.194 16.344 42.622 16.344 58.845 0 16.314-16.284 16.314-42.622 0-58.906l-551.341-551.401c-8.157-8.097-18.782-12.16-29.468-12.16v0z" />
<glyph unicode="&#xe916;" glyph-name="ico-bianj" d="M784.759 640.199c5.121 5.022 5.2 13.244 0.178 18.363l-123.892 126.32c-5.022 5.121-13.244 5.2-18.364 0.178l-79.962-78.426 142.078-144.861 79.962 78.426zM337.614 219.836c5.022-5.121 1.338-1.665 9.093-9.271l339.548 333.023-142.078 144.862-339.548-333.023c9.093-9.272 4.072-4.151 9.093-9.272l123.892-126.319zM185.12 338.095l-15.198-158.813 159.076 12.116zM169.922 139.333h674.998v-35.711h-674.998v35.711z" />
<glyph unicode="&#xe917;" glyph-name="down" d="M504.549 192.293l447.974 459.642-50.732 52.012-397.211-407.574-397.21 407.542-50.733-51.975z" />
<glyph unicode="&#xe918;" glyph-name="right" d="M767.707 440.549l-459.642 447.974-52.012-50.732 407.574-397.211-407.542-397.21 51.975-50.733z" />
<glyph unicode="&#xe91b;" glyph-name="right2" d="M511.051 892.452c246.454 0 446.323-199.802 446.323-446.325 0-246.525-199.869-446.324-446.323-446.324-246.525 0-446.325 199.8-446.325 446.324s199.801 446.325 446.325 446.325zM511.051 55.593c215.7 0 390.534 174.834 390.534 390.534s-174.799 390.604-390.534 390.604c-215.736 0-390.569-174.903-390.569-390.604s174.869-390.534 390.569-390.534zM384.545 684.212c10.88 10.95 28.524 10.95 39.402 0l213.573-213.538c6.694-6.764 8.787-15.9 7.252-24.547 1.535-8.647-0.592-17.853-7.252-24.548l-213.573-213.608c-10.914-10.879-28.557-10.879-39.402 0-10.948 10.879-10.948 28.592 0 39.472l198.616 198.684-198.615 198.615c-10.949 10.948-10.949 28.592-0.001 39.471z" />
<glyph unicode="&#xe91c;" glyph-name="menu" d="M191.912 683.011c0-22.79-18.475-41.265-41.265-41.265h-44.36c-22.79 0-41.265 18.475-41.265 41.265v44.36c0 22.79 18.475 41.265 41.265 41.265h44.36c22.79 0 41.265-18.475 41.265-41.265v-44.36zM191.912 426.502c0-22.79-18.475-41.265-41.265-41.265h-44.36c-22.79 0-41.265 18.475-41.265 41.265v44.36c0 22.79 18.475 41.265 41.265 41.265h44.36c22.79 0 41.265-18.475 41.265-41.265v-44.36zM191.912 171.321c0-22.79-18.475-41.265-41.265-41.265h-44.36c-22.79 0-41.265 18.475-41.265 41.265v44.36c0 22.79 18.475 41.265 41.265 41.265h44.36c22.79 0 41.265-18.475 41.265-41.265v-44.36zM957.772 709.797c0-17.52-14.202-31.722-31.722-31.722h-638.011c-17.52 0-31.722 14.202-31.722 31.722v0c0 17.52 14.202 31.722 31.722 31.722h638.011c17.52 0 31.722-14.202 31.722-31.722v0zM957.772 450.218c0-17.52-14.202-31.722-31.722-31.722h-638.011c-17.52 0-31.722 14.202-31.722 31.722v0c0 17.52 14.202 31.722 31.722 31.722h638.011c17.52 0 31.722-14.202 31.722-31.722v0zM957.772 194.012c0-17.52-14.202-31.722-31.722-31.722h-638.011c-17.52 0-31.722 14.202-31.722 31.722v0c0 17.52 14.202 31.722 31.722 31.722h638.011c17.52 0 31.722-14.202 31.722-31.722v0z" />
<glyph unicode="&#xe91d;" glyph-name="paizhao" d="M798.375 690.823c-43.153 0-92.635 30.679-110.357 51.877l-47.917 57.319c-12.106 14.442-33.302 31.715-65.616 31.715h-123.003c-33.153 0-51.105-13.544-69.379-35.363l-45.397-54.35c-17.906-21.37-68.067-51.197-109.103-51.197-13.004 0-23.579 10.53-23.579 23.579 0 13.038 10.575 23.614 23.579 23.614 25.558 0 63.119 22.589 72.981 34.373l45.397 54.258c21.588 25.88 51.013 52.291 105.502 52.291h123.004c53.097 0 86.56-30.461 101.75-48.643l46.674-55.789c11.255-13.498 47.964-36.491 75.467-36.491 13.049 0 23.591-10.575 23.591-23.614-0.002-13.049-10.544-23.579-23.593-23.579v0zM866.131 29.794h-707.012c-52.014 0-94.304 42.324-94.304 94.385v519.394c0 52.106 42.29 94.443 94.304 94.443h66.226c13.004 0 23.579-10.575 23.579-23.614 0-13.049-10.576-23.579-23.579-23.579h-66.226c-26.006 0-47.146-21.197-47.146-47.25v-519.393c0-26.007 21.139-47.182 47.146-47.182h707.014c26.007 0 47.159 21.174 47.159 47.182v519.393c0 26.053-21.152 47.25-47.159 47.25h-66.491c-13.026 0-23.589 10.53-23.589 23.579 0 13.038 10.563 23.614 23.589 23.614h66.491c52.015 0 94.271-42.336 94.271-94.443v-519.393c-0.001-52.061-42.257-94.386-94.272-94.386v0zM677.339 383.882c-13.004 0-23.521 10.576-23.521 23.626 0 77.964-63.362 141.405-141.199 141.405-77.826 0-141.174-63.441-141.174-141.405 0-77.975 63.349-141.417 141.174-141.417 26.733 0 53.004 7.824 75.997 22.636 10.933 7.055 25.523 3.867 32.567-7.157 7.042-10.967 3.82-25.559-7.089-32.624-30.656-19.655-65.697-30.081-101.474-30.081-103.832 0-188.286 84.615-188.286 188.643 0 104.017 84.454 188.643 188.286 188.643 103.844 0 188.287-84.626 188.287-188.643-0.001-13.050-10.519-23.626-23.568-23.626v0z" />
<glyph unicode="&#xe91e;" glyph-name="paiming" d="M672 64c-17.6 0-32 14.4-32 32v672c0 17.6-14.4 32-32 32h-192c-17.6 0-32-14.4-32-32v-672c0-17.6-14.4-32-32-32s-32 14.4-32 32v672c0 52.8 43.2 96 96 96h192c52.8 0 96-43.2 96-96v-672c0-17.6-14.4-32-32-32zM864 32h-704c-52.8 0-96 43.2-96 96v256c0 52.8 43.2 96 96 96h64c17.6 0 32-14.4 32-32s-14.4-32-32-32h-64c-17.6 0-32-14.4-32-32v-256c0-17.6 14.4-32 32-32h704c17.6 0 32 14.4 32 32v448c0 17.6-14.4 32-32 32h-64c-17.6 0-32 14.4-32 32s14.4 32 32 32h64c52.8 0 96-43.2 96-96v-448c0-52.8-43.2-96-96-96z" />
<glyph unicode="&#xe91f;" glyph-name="time" d="M512 960c-282.304 0-512-229.696-512-512 0-282.283 229.696-512 512-512 282.283 0 512 229.717 512 512 0 282.304-229.717 512-512 512zM512-21.27c-258.73 0-469.27 210.54-469.27 469.27s210.54 469.27 469.27 469.27 469.27-210.54 469.27-469.27-210.54-469.27-469.27-469.27zM766.741 732.95l-204.65-204.63c-14.592 9.13-31.659 14.656-50.112 14.656s-35.542-5.504-50.134-14.656l-94.25 94.25c-8.363 8.363-21.846 8.363-30.208 0s-8.363-21.866 0-30.229l94.25-94.25c-9.13-14.571-14.634-31.659-14.634-50.091 0-52.352 42.581-94.933 94.954-94.933 52.331 0 94.934 42.581 94.934 94.933 0 18.432-5.504 35.52-14.635 50.090l204.65 204.651c8.385 8.363 8.385 21.846 0 30.208s-21.78 8.363-30.165 0zM512 395.796c-28.779 0-52.224 23.424-52.224 52.203s23.424 52.224 52.224 52.224c28.8 0 52.203-23.445 52.203-52.224 0-28.8-23.403-52.203-52.203-52.203z" />
<glyph unicode="&#xe920;" glyph-name="shijuan" d="M237.137 735.758h83.341v-87.974h-83.341v87.974zM358.592 712.672h395.555v-54.35h-395.555v54.35zM721.484 197.050l-92.265 86.277v-84.662l92.265-86.479 188.692 176.052v84.671zM237.137 557.663h83.341v-87.974h-83.341v87.974zM358.592 534.577h395.555v-54.35h-395.555v54.35zM237.137 379.566h83.341v-87.975h-83.341v87.975zM358.592 356.482h213.134v-54.35h-213.134v54.35zM547.393 145.842c-0.956 0-1.863-0.174-2.792-0.281v0.282h-358.607c-18.735 0-23.499 4.77-23.499 23.503v631.486c0 18.74 4.765 23.503 23.499 23.503h631.515c18.734 0 23.503-4.763 23.503-23.503v-347.008l0.128 0.002c0.675-12.834 11.202-23.059 24.204-23.059 13.284 0 24.041 10.656 24.287 23.881l0.045 0.001v379.563c0 21.422-17.368 38.791-38.789 38.791h-698.271c-21.424 0-38.791-17.37-38.791-38.791v-698.245c0-21.422 17.368-38.79 38.791-38.79l391.987 0.281c0.927-0.107 1.835-0.281 2.792-0.281 13.439 0 24.333 10.894 24.333 24.332s-10.895 24.333-24.334 24.333z" />
<glyph unicode="&#xe921;" glyph-name="tijiao" d="M512 952c-277.903 0-504-226.097-504-504s226.097-504 504-504 504 226.097 504 504-226.097 504-504 504zM512-15.68c-255.666 0-463.68 207.985-463.68 463.68 0 255.666 208.014 463.68 463.68 463.68 255.695 0 463.68-208.014 463.68-463.68 0-255.695-207.985-463.68-463.68-463.68zM767.040 646.56c-3.91 4.077-10.263 4.077-14.173 0l-332.977-345.622-148.786 154.423c-1.781 1.877-4.296 3.036-7.080 3.036s-5.299-1.159-7.077-3.033l-14.176-14.725c-3.91-4.048-3.91-10.645 0-14.722l170.031-176.522c1.781-1.877 4.296-3.036 7.080-3.036s5.299 1.159 7.077 3.033l354.254 367.74c3.926 4.048 3.926 10.645 0 14.693l-14.173 14.722z" />
<glyph unicode="&#xe922;" glyph-name="tupian" d="M873.282 839.542h-724.394c-46.187 0-83.627-37.44-83.627-83.627v-612.94c0-46.186 37.44-83.627 83.627-83.627h724.394c46.187 0 83.627 37.441 83.627 83.627v612.94c0 46.186-37.441 83.627-83.627 83.627v0zM148.865 783.814h724.442c15.395 0 27.874-12.483 27.874-27.875v-328.185c-44.903 36.845-122.751 86.523-216.14 86.523-86.106 0-171.001-66.723-253.088-131.25-62.9-49.435-127.946-100.562-173.584-100.562-64.014 0-118.81 47.059-137.382 65.014v408.461c0 15.392 12.483 27.875 27.878 27.875v0zM873.308 115.074h-724.442c-15.395 0-27.878 12.483-27.878 27.875v132.279c33.414-23.673 81.73-48.516 137.382-48.516 64.924 0 134.44 54.634 208.032 112.484 74.647 58.665 151.82 119.328 218.641 119.328 119.767 0 214.757-105.429 215.698-106.491l0.442 0.391v-209.469c0-15.397-12.479-27.88-27.874-27.88v0zM343.616 449.14c61.642 0 111.607 49.97 111.607 111.607 0 61.642-49.966 111.608-111.607 111.608-61.637 0-111.608-49.966-111.608-111.608 0-61.637 49.971-111.607 111.608-111.607v0zM344.032 616.628c30.689 0 55.566-24.877 55.566-55.57 0-30.69-24.878-55.566-55.566-55.566-30.693 0-55.571 24.877-55.571 55.566s24.883 55.57 55.571 55.57v0z" />
<glyph unicode="&#xe923;" glyph-name="weike" d="M828.242 763.376c-81.078 81.773-192.206 131.399-315.917 131.399s-234.839-49.625-315.917-130.699l-1.399-2.099c-79.675-80.379-129.301-191.507-129.301-313.819 0-48.226 7.687-94.358 21.666-138.386 13.979-41.239 32.847-80.379 57.312-115.326v-159.358c0-18.868 15.375-34.246 34.947-34.246h332.691c123.712 0 234.839 50.325 315.917 130.7 81.078 81.078 130.7 192.904 130.7 315.917 0 123.712-49.625 234.839-130.7 315.917zM780.015 180.467c-68.497-68.493-163.552-111.126-267.691-111.126h-299.143v134.892c0 6.988-2.095 14.675-6.292 20.268-23.061 31.451-41.934 67.098-53.815 105.539-11.885 36.347-18.872 76.181-18.872 117.42 0 104.139 41.934 197.798 109.033 265.592l2.099 2.099c67.794 68.494 162.851 111.127 266.991 111.127s199.194-42.633 267.691-110.427c68.494-69.198 111.128-163.552 111.128-268.391-0.001-104.142-42.635-199.195-111.129-266.993zM478.766 595.984c0 0-6.892 5.947-19.088 5.947-14.335 0-26.499-12.444-26.499-26.502 0-14.054 9.117-20.188 18.452-25.121 33.463-21.705 55.668-59.252 55.668-102.105 0-42.771-22.13-80.252-55.478-101.99-4.728-3.239-18.644-9.065-18.644-25.177 0-14.637 10.824-26.212 24.82-26.212v-0.003c13.997 0 20.767 5.663 20.767 5.663 48.984 30.984 81.607 85.497 81.607 147.748 0 62.255-32.623 116.757-81.607 147.752zM388.188 489.59c-14.747 8.513-32.919 8.513-47.666 0-14.75-8.515-23.835-24.251-23.835-41.282 0-17.028 9.085-32.764 23.835-41.279 14.747-8.516 32.919-8.516 47.666 0s23.832 24.251 23.832 41.279c0 17.031-9.084 32.767-23.832 41.282zM579.086 680.385c0 0-12.795 8.267-27.038 3.006-10.703-4.633-18-13.444-18-25.447 0-12.005 4.923-19.525 18-28.663 52.531-45.643 86.85-96.592 89.978-182.484 2.474-67.948-14.353-99.107-34.175-133.32-19.826-34.216-57.866-64.336-63.41-69.372-6.528-5.928-13.007-13.461-13.007-23.392 0-13.624 9.822-24.172 23.128-26.373 13.309-2.2 24.525 4.97 24.525 4.97 86.019 60.396 127.039 168.071 119.694 247.486 0 94.616-49.779 177.249-119.694 233.588z" />
<glyph unicode="&#xe924;" glyph-name="my" d="M518.108 950.409c-276.055 0-499.861-223.806-499.861-499.861s223.806-499.86 499.861-499.86 499.861 223.805 499.861 499.86-223.806 499.861-499.861 499.861zM518.108 902.801c249.76 0 452.254-202.495 452.254-452.254 0-103.984-35.12-199.762-94.114-276.167-35.437 98.843-110.42 178.776-205.962 220.579 38.364 38.721 62.059 91.977 62.059 150.782 0 118.326-95.91 214.235-214.236 214.235s-214.235-95.909-214.235-214.235c0-58.805 23.695-112.083 62.059-150.782-95.542-41.803-170.526-121.759-205.962-220.579-58.994 76.404-94.114 172.184-94.114 276.167-0.001 249.759 202.493 452.254 452.253 452.254zM346.721 545.764c0 94.657 76.731 171.387 171.387 171.387s171.388-76.731 171.388-171.387-76.731-171.387-171.388-171.387-171.387 76.73-171.387 171.387zM518.108-1.706c-125.783 0-239.563 51.367-321.541 134.265 28.762 107.017 109.45 192.562 213.384 228.258 31.744-18.611 68.712-29.29 108.157-29.29s76.413 10.68 108.157 29.289c103.925-35.696 184.621-121.262 213.384-228.257-81.979-82.898-195.758-134.265-321.541-134.265z" />
<glyph unicode="&#xe925;" glyph-name="yuyin" d="M537.6 116.275v-129.075h179.2c14.131 0 25.6-11.469 25.6-25.6s-11.469-25.6-25.6-25.6h-409.6c-14.131 0-25.6 11.469-25.6 25.6s11.469 25.6 25.6 25.6h179.2v129.075c-171.597 13.133-307.2 156.851-307.2 331.725 0 14.131 11.469 25.6 25.6 25.6s25.6-11.469 25.6-25.6c0-155.29 126.31-281.6 281.6-281.6 155.264 0 281.6 126.31 281.6 281.6 0 14.131 11.469 25.6 25.6 25.6s25.6-11.469 25.6-25.6c0-174.874-135.629-318.592-307.2-331.725zM716.8 755.2l-1.254-307.2c0-105.856-97.69-203.827-203.546-203.827s-204.237 94.797-204.237 200.653l-0.563 310.374c0 105.856 98.944 204.8 204.8 204.8s204.8-98.944 204.8-204.8zM665.6 755.2c0 77.696-75.904 153.6-153.6 153.6s-153.6-75.904-153.6-153.6l-1.254-308.122c0-77.696 77.158-152.115 154.854-152.115s154.163 75.341 154.163 153.037l-0.563 307.2z" />
<glyph unicode="&#xe926;" glyph-name="zuoye" d="M511.401 898.476c-246.556 0-446.435-199.878-446.435-446.435 0-246.561 199.877-446.436 446.435-446.436 246.561 0 446.435 199.874 446.435 446.436-0.001 246.556-199.874 446.435-446.435 446.435v0zM511.401 68.261c-211.955 0-383.775 171.824-383.775 383.781s171.819 383.776 383.775 383.776c211.956 0 383.779-171.82 383.779-383.777 0-211.954-171.824-383.78-383.779-383.78v0zM510.635 896.593c-246.745 0-446.774-200.031-446.774-446.774 0-246.748 200.030-446.775 446.774-446.775 246.748 0 446.774 200.027 446.774 446.775-0.001 246.744-200.027 446.774-446.774 446.774v0zM510.635 65.747c-212.116 0-384.067 171.955-384.067 384.072s171.951 384.067 384.067 384.067c212.117 0 384.070-171.951 384.070-384.068s-171.955-384.071-384.070-384.071v0zM509.653 898.102c-247.168 0-447.542-200.375-447.542-447.542 0-247.171 200.374-447.543 447.542-447.543 247.171 0 447.542 200.369 447.542 447.543-0.002 247.168-200.371 447.542-447.542 447.542v0zM509.653 65.83c-212.48 0-384.726 172.251-384.726 384.732s172.246 384.727 384.726 384.727c212.481 0 384.73-172.247 384.73-384.728s-172.251-384.731-384.73-384.731v0zM416.891 354.554l150.21 152.56-76.851 78.498-154.615-154.699-1.492-9.464 79.004-67.275 3.744 0.381zM593.515 533.923l53.406 54.237 3.436 21.656-57.222 56.983-22.894-1.154-56.251-56.265 79.525-75.457zM310.458 315.819l66.85 28.773-54.572 44.741-22.571-54.14-6.872-25.077 17.165 5.703zM315.005 277.408c-11.897 0-21.543-9.645-21.543-21.544 0-11.897 9.646-21.543 21.543-21.543h389.463c11.898 0 21.543 9.646 21.543 21.543s-9.645 21.544-21.543 21.544h-389.463zM704.257 331.476c12.011 0 21.754 9.744 21.754 21.754s-9.744 21.754-21.754 21.754h-216.020c-12.011 0-21.754-9.744-21.754-21.754s9.743-21.754 21.754-21.754h216.020z" />
<glyph unicode="&#xe927;" glyph-name="ico-yuyin" d="M827.247 508.925c-12.95 0.588-23.926-9.433-24.516-22.383-0.093-2.063-0.419-6.354-1.106-12.543-1.171-10.548-2.959-22.359-5.49-35.107-7.227-36.413-18.898-72.795-35.917-106.534-47.673-94.508-126.926-150.335-248.217-150.717-121.29 0.382-200.547 56.208-248.217 150.717-17.019 33.739-28.692 70.12-35.919 106.534-2.53 12.747-4.317 24.558-5.488 35.107-0.688 6.189-1.014 10.48-1.108 12.543-0.588 12.95-11.564 22.971-24.514 22.383-12.952-0.588-22.973-11.564-22.383-24.516 0.514-11.339 2.631-30.394 7.447-54.655 8-40.316 20.946-80.665 40.051-118.538 51.841-102.777 138.972-167.127 265.457-175.017v-85.6h-196.139c-12.965 0-23.474-10.51-23.474-23.474s10.508-23.474 23.474-23.474h441.857c12.963 0 23.474 10.508 23.474 23.474 0 12.963-10.51 23.474-23.474 23.474h-198.771v85.454c127.792 7.209 215.69 71.735 267.861 175.162 19.104 37.873 32.051 78.222 40.051 118.538 4.816 24.261 6.931 43.316 7.447 54.655 0.586 12.952-9.433 23.928-22.384 24.516zM510.171 259.808c106.568 0 193.354 86.506 193.354 193.221v246.1c0 106.593-86.568 193.221-193.354 193.221-106.57 0-193.354-86.508-193.354-193.221v-246.1c0-106.596 86.568-193.221 193.354-193.221zM363.765 699.129c0 80.694 65.675 146.273 146.407 146.273 80.82 0 146.407-65.57 146.407-146.273v-246.1c0-80.696-65.675-146.273-146.407-146.273-80.82 0-146.407 65.568-146.407 146.273v246.1z" />
<glyph unicode="&#xea1c;" glyph-name="play-down" d="M703.964 607.971l-191.964-319.942-191.964 319.942z" />
<glyph unicode="&#xea1d;" glyph-name="play-right" d="M352.029 639.964l319.942-191.964-319.942-191.964z" />
<glyph unicode="&#xf007;" glyph-name="shoucang" horiz-adv-x="951" d="M950.857 581.143q0-12.571-14.857-27.429l-207.429-202.286 49.143-285.714q0.571-4 0.571-11.429 0-12-6-20.286t-17.429-8.286q-10.857 0-22.857 6.857l-256.571 134.857-256.571-134.857q-12.571-6.857-22.857-6.857-12 0-18 8.286t-6 20.286q0 3.429 1.143 11.429l49.143 285.714-208 202.286q-14.286 15.429-14.286 27.429 0 21.143 32 26.286l286.857 41.714 128.571 260q10.857 23.429 28 23.429t28-23.429l128.571-260 286.857-41.714q32-5.143 32-26.286z" />
<glyph unicode="&#xf008;" glyph-name="shoucang-o" horiz-adv-x="951" d="M649.714 377.143l174.857 169.714-241.143 35.429-108 218.286-108-218.286-241.143-35.429 174.857-169.714-41.714-240.571 216 113.714 215.429-113.714zM950.857 581.143q0-12.571-14.857-27.429l-207.429-202.286 49.143-285.714q0.571-4 0.571-11.429 0-28.571-23.429-28.571-10.857 0-22.857 6.857l-256.571 134.857-256.571-134.857q-12.571-6.857-22.857-6.857-12 0-18 8.286t-6 20.286q0 3.429 1.143 11.429l49.143 285.714-208 202.286q-14.286 15.429-14.286 27.429 0 21.143 32 26.286l286.857 41.714 128.571 260q10.857 23.429 28 23.429t28-23.429l128.571-260 286.857-41.714q32-5.143 32-26.286z" />
</font>
</defs>
</svg>
