<?xml version="1.0" encoding="utf-8"?>
<!DOCTYPE svg PUBLIC "-//W3C//DTD SVG 1.1//EN" "http://www.w3.org/Graphics/SVG/1.1/DTD/svg11.dtd">
<svg version="1.1" id="图形" xmlns="http://www.w3.org/2000/svg" xmlns:xlink="http://www.w3.org/1999/xlink" x="0px" y="0px" width="1024px" height="1024px" viewBox="0 0 1024 1024" enable-background="new 0 0 1024 1024" xml:space="preserve">
  <path fill="#00bdc7" d="M864.631949 301.39886c0-194.526415-157.70204-352.221993-352.235402-352.221993-194.533362 0-352.235402 157.695578-352.235402 352.221993 0 194.526415 157.70204 352.22097 352.235402 352.22097C706.92991 653.61983 864.631949 495.924251 864.631949 301.39886zM512.396547 591.198152c-160.057787 0-289.811166-129.748063-289.811166-289.799292 0-160.052253 129.753379-289.800315 289.811166-289.800315 160.057787 0 289.811166 129.748063 289.811166 289.800315C802.207714 461.450089 672.454335 591.198152 512.396547 591.198152zM512.396547 301.39886m-161.17733 0a157.5 157.5 0 1 0 322.35466 0 157.5 157.5 0 1 0-322.35466 0Z" transform="translate(0, 812) scale(1, -1)"/>
</svg>
