<?xml version="1.0" encoding="utf-8"?>
<!DOCTYPE svg PUBLIC "-//W3C//DTD SVG 1.1//EN" "http://www.w3.org/Graphics/SVG/1.1/DTD/svg11.dtd">
<svg version="1.1" id="图形" xmlns="http://www.w3.org/2000/svg" xmlns:xlink="http://www.w3.org/1999/xlink" x="0px" y="0px" width="1024px" height="1024px" viewBox="0 0 1024 1024" enable-background="new 0 0 1024 1024" xml:space="preserve">
  <path fill="#ec1b1b" d="M512 800C235.856 800 12 576.144 12 300s223.856-500 500-500 500 223.856 500 500S788.144 800 512 800zM567.556 49.989c0-15.333-12.433-27.767-27.767-27.767l-55.567 0c-15.344 0-27.778 12.433-27.778 27.767l0 55.556c0 15.344 12.433 27.778 27.778 27.778l55.567 0c15.333 0 27.767-12.433 27.767-27.778L567.556 49.989zM567.556 216.667c0-15.356-12.444-27.789-27.778-27.789l-55.556 0c-15.344 0-27.778 12.433-27.778 27.789l-55.556 222.222c0 8.049 1.821 62.922 24.403 97.088 20.436 30.918 57.208 41.801 84.33 41.801 22.791 0 61.784-6.185 86.355-40.293 22.841-31.706 27.134-91.209 27.134-98.596L567.556 216.667z" transform="translate(0, 812) scale(1, -1)"/>
</svg>
